<svg width="27" height="24" viewBox="0 0 27 24" fill="none" xmlns="http://www.w3.org/2000/svg">
<path d="M23.9274 10.9V4.1C23.9274 2.6 23.2436 2 21.5449 2L17.2287 2C15.53 2 14.8462 2.6 14.8462 4.1L14.8462 10.9C14.8462 12.4 15.53 13 17.2287 13L21.5449 13C23.2436 13 23.9274 12.4 23.9274 10.9Z" fill="#0C0C0C"/>
<path d="M12.7094 13.1L12.7094 19.9C12.7094 21.4 12.0257 22 10.327 22H6.01071C4.312 22 3.62823 21.4 3.62823 19.9L3.62823 13.1C3.62823 11.6 4.312 11 6.01071 11L10.327 11C12.0257 11 12.7094 11.6 12.7094 13.1Z" fill="#0C0C0C"/>
<path d="M23.9274 19.9V17.1C23.9274 15.6 23.2436 15 21.5449 15L17.2287 15C15.53 15 14.8462 15.6 14.8462 17.1V19.9C14.8462 21.4 15.53 22 17.2287 22H21.5449C23.2436 22 23.9274 21.4 23.9274 19.9Z" fill="#0C0C0C"/>
<path d="M12.7094 6.9V4.1C12.7094 2.6 12.0257 2 10.327 2L6.01071 2C4.312 2 3.62823 2.6 3.62823 4.1L3.62823 6.9C3.62823 8.4 4.312 9 6.01071 9H10.327C12.0257 9 12.7094 8.4 12.7094 6.9Z" fill="#0C0C0C"/>
</svg>
