<svg width="314" height="182" viewBox="0 0 314 182" fill="none" xmlns="http://www.w3.org/2000/svg">
<g opacity="0.2">
<path d="M9.78172 28.9763C18.8653 27.2169 57.8951 14.4376 110.817 35.245C176.969 61.2543 191.626 132.55 309.816 124.883" stroke="white"/>
<path d="M-1.9761e-05 66.6045C9.08359 64.8451 48.1134 52.0658 101.035 72.8732C167.187 98.8825 181.844 170.178 300.034 162.511" stroke="white"/>
<path d="M2.36253 57.5489C11.4461 55.7895 50.4759 43.0103 103.397 63.8177C169.549 89.8269 184.207 161.122 302.397 153.456" stroke="white"/>
<path d="M4.65479 48.4847C13.796 46.5787 53.1298 33.0261 106.051 53.8335C172.203 79.8428 186.152 152.94 304.927 143.785" stroke="white"/>
<path d="M7.30864 38.5005C16.4211 36.6678 55.6029 23.5019 108.524 44.3093C174.676 70.3186 188.98 142.515 307.462 134.104" stroke="white"/>
</g>
</svg>
