<svg width="15" height="16" viewBox="0 0 15 16" fill="none" xmlns="http://www.w3.org/2000/svg">
<path d="M12.398 6.02299L6.39796 12.023C6.34571 12.0754 6.28361 12.117 6.21524 12.1454C6.14686 12.1738 6.07356 12.1884 5.99953 12.1884C5.92549 12.1884 5.85219 12.1738 5.78382 12.1454C5.71544 12.117 5.65335 12.0754 5.60109 12.023L2.97609 9.39799C2.92377 9.34566 2.88226 9.28355 2.85394 9.21518C2.82563 9.14682 2.81105 9.07355 2.81105 8.99955C2.81105 8.92555 2.82563 8.85228 2.85394 8.78392C2.88226 8.71555 2.92377 8.65344 2.97609 8.60111C3.02841 8.54879 3.09053 8.50728 3.15889 8.47897C3.22726 8.45065 3.30053 8.43607 3.37453 8.43607C3.44852 8.43607 3.52179 8.45065 3.59016 8.47897C3.65852 8.50728 3.72064 8.54879 3.77296 8.60111L5.99999 10.8281L11.602 5.22705C11.7077 5.12138 11.851 5.06201 12.0005 5.06201C12.1499 5.06201 12.2932 5.12138 12.3989 5.22705C12.5046 5.33272 12.5639 5.47604 12.5639 5.62549C12.5639 5.77493 12.5046 5.91825 12.3989 6.02393L12.398 6.02299Z" fill="white"/>
</svg>
