<svg width="20" height="21" viewBox="0 0 20 21" fill="none" xmlns="http://www.w3.org/2000/svg">
<path d="M17.7672 3.61406C17.7538 3.38471 17.6566 3.16826 17.4942 3.0058C17.3317 2.84335 17.1153 2.7462 16.8859 2.73281C13.7922 2.55078 11.0586 2.91562 8.76093 3.8164C6.56249 4.67812 4.86796 6.01406 3.85858 7.67969C2.48202 9.9539 2.4789 12.7148 3.82343 15.3508L2.46171 16.7125C2.3745 16.7997 2.30533 16.9032 2.25813 17.0172C2.21094 17.1311 2.18665 17.2532 2.18665 17.3766C2.18665 17.4999 2.21094 17.622 2.25813 17.7359C2.30533 17.8499 2.3745 17.9534 2.46171 18.0406C2.63783 18.2167 2.8767 18.3157 3.12577 18.3157C3.2491 18.3157 3.37122 18.2914 3.48516 18.2442C3.5991 18.197 3.70263 18.1278 3.78983 18.0406L5.15155 16.6789C6.45937 17.3461 7.79843 17.6828 9.09296 17.6828C10.4082 17.6869 11.699 17.3273 12.8226 16.6437C14.4883 15.6344 15.8242 13.9391 16.6859 11.7414C17.5844 9.44218 17.9492 6.70781 17.7672 3.61406ZM11.8484 15.0375C10.2789 15.9883 8.43749 16.0602 6.5578 15.2656L13.1625 8.66093C13.2497 8.57373 13.3189 8.4702 13.3661 8.35626C13.4133 8.24232 13.4376 8.1202 13.4376 7.99687C13.4376 7.87354 13.4133 7.75142 13.3661 7.63748C13.3189 7.52354 13.2497 7.42002 13.1625 7.33281C13.0753 7.2456 12.9718 7.17643 12.8578 7.12923C12.7439 7.08204 12.6218 7.05775 12.4984 7.05775C12.3751 7.05775 12.253 7.08204 12.139 7.12923C12.0251 7.17643 11.9216 7.2456 11.8344 7.33281L5.23437 13.9422C4.44218 12.0672 4.51405 10.2211 5.46874 8.65156C7.10233 5.9539 10.9797 4.45469 15.9375 4.56953C16.0453 9.52578 14.5461 13.4039 11.8484 15.0375Z" fill="black"/>
</svg>
