<svg width="21" height="20" viewBox="0 0 21 20" fill="none" xmlns="http://www.w3.org/2000/svg">
<path d="M18.2672 3.11406C18.2538 2.88471 18.1566 2.66826 17.9942 2.5058C17.8317 2.34335 17.6153 2.2462 17.3859 2.23281C14.2922 2.05078 11.5586 2.41562 9.26094 3.3164C7.0625 4.17812 5.36797 5.51406 4.35859 7.17969C2.98203 9.4539 2.9789 12.2148 4.32344 14.8508L2.96172 16.2125C2.87451 16.2997 2.80534 16.4032 2.75814 16.5172C2.71094 16.6311 2.68665 16.7532 2.68665 16.8766C2.68665 16.9999 2.71094 17.122 2.75814 17.2359C2.80534 17.3499 2.87451 17.4534 2.96172 17.5406C3.13784 17.7167 3.37671 17.8157 3.62578 17.8157C3.74911 17.8157 3.87123 17.7914 3.98517 17.7442C4.09911 17.697 4.20264 17.6278 4.28984 17.5406L5.65156 16.1789C6.95937 16.8461 8.29844 17.1828 9.59297 17.1828C10.9082 17.1869 12.199 16.8273 13.3227 16.1437C14.9883 15.1344 16.3242 13.4391 17.1859 11.2414C18.0844 8.94218 18.4492 6.20781 18.2672 3.11406ZM12.3484 14.5375C10.7789 15.4883 8.9375 15.5602 7.05781 14.7656L13.6625 8.16093C13.7497 8.07373 13.8189 7.9702 13.8661 7.85626C13.9133 7.74232 13.9376 7.6202 13.9376 7.49687C13.9376 7.37354 13.9133 7.25142 13.8661 7.13748C13.8189 7.02354 13.7497 6.92002 13.6625 6.83281C13.5753 6.7456 13.4718 6.67643 13.3578 6.62923C13.2439 6.58204 13.1218 6.55775 12.9984 6.55775C12.8751 6.55775 12.753 6.58204 12.639 6.62923C12.5251 6.67643 12.4216 6.7456 12.3344 6.83281L5.73437 13.4422C4.94219 11.5672 5.01406 9.72109 5.96875 8.15156C7.60234 5.4539 11.4797 3.95469 16.4375 4.06953C16.5453 9.02578 15.0461 12.9039 12.3484 14.5375Z" fill="black"/>
</svg>
