<svg width="21" height="21" viewBox="0 0 21 21" fill="none" xmlns="http://www.w3.org/2000/svg">
<path d="M18.2672 3.61406C18.2538 3.38471 18.1567 3.16826 17.9942 3.0058C17.8317 2.84335 17.6153 2.7462 17.3859 2.73281C14.2922 2.55078 11.5586 2.91562 9.26094 3.8164C7.06251 4.67812 5.36797 6.01406 4.3586 7.67969C2.98204 9.9539 2.97891 12.7148 4.32344 15.3508L2.96172 16.7125C2.87452 16.7997 2.80534 16.9032 2.75815 17.0172C2.71095 17.1311 2.68666 17.2532 2.68666 17.3766C2.68666 17.4999 2.71095 17.622 2.75815 17.7359C2.80534 17.8499 2.87452 17.9534 2.96172 18.0406C3.13784 18.2167 3.37672 18.3157 3.62579 18.3157C3.74911 18.3157 3.87124 18.2914 3.98518 18.2442C4.09912 18.197 4.20264 18.1278 4.28985 18.0406L5.65157 16.6789C6.95938 17.3461 8.29844 17.6828 9.59297 17.6828C10.9082 17.6869 12.199 17.3273 13.3227 16.6437C14.9883 15.6344 16.3242 13.9391 17.1859 11.7414C18.0844 9.44218 18.4492 6.70781 18.2672 3.61406ZM12.3484 15.0375C10.7789 15.9883 8.93751 16.0602 7.05782 15.2656L13.6625 8.66093C13.7497 8.57373 13.8189 8.4702 13.8661 8.35626C13.9133 8.24232 13.9376 8.1202 13.9376 7.99687C13.9376 7.87354 13.9133 7.75142 13.8661 7.63748C13.8189 7.52354 13.7497 7.42002 13.6625 7.33281C13.5753 7.2456 13.4718 7.17643 13.3578 7.12923C13.2439 7.08204 13.1218 7.05775 12.9984 7.05775C12.8751 7.05775 12.753 7.08204 12.6391 7.12923C12.5251 7.17643 12.4216 7.2456 12.3344 7.33281L5.73438 13.9422C4.94219 12.0672 5.01407 10.2211 5.96876 8.65156C7.60235 5.9539 11.4797 4.45469 16.4375 4.56953C16.5453 9.52578 15.0461 13.4039 12.3484 15.0375Z" fill="black"/>
</svg>
