<svg width="20" height="21" viewBox="0 0 20 21" fill="none" xmlns="http://www.w3.org/2000/svg">
<path d="M17.7672 3.36406C17.7538 3.13471 17.6567 2.91826 17.4942 2.7558C17.3317 2.59335 17.1153 2.4962 16.8859 2.48281C13.7922 2.30078 11.0586 2.66562 8.76094 3.5664C6.56251 4.42812 4.86797 5.76406 3.8586 7.42969C2.48204 9.7039 2.47891 12.4648 3.82344 15.1008L2.46172 16.4625C2.37452 16.5497 2.30534 16.6532 2.25815 16.7672C2.21095 16.8811 2.18666 17.0032 2.18666 17.1266C2.18666 17.2499 2.21095 17.372 2.25815 17.4859C2.30534 17.5999 2.37452 17.7034 2.46172 17.7906C2.63784 17.9667 2.87672 18.0657 3.12579 18.0657C3.24911 18.0657 3.37124 18.0414 3.48518 17.9942C3.59912 17.947 3.70264 17.8778 3.78985 17.7906L5.15157 16.4289C6.45938 17.0961 7.79844 17.4328 9.09297 17.4328C10.4082 17.4369 11.699 17.0773 12.8227 16.3937C14.4883 15.3844 15.8242 13.6891 16.6859 11.4914C17.5844 9.19218 17.9492 6.45781 17.7672 3.36406ZM11.8484 14.7875C10.2789 15.7383 8.43751 15.8102 6.55782 15.0156L13.1625 8.41093C13.2497 8.32373 13.3189 8.2202 13.3661 8.10626C13.4133 7.99232 13.4376 7.8702 13.4376 7.74687C13.4376 7.62354 13.4133 7.50142 13.3661 7.38748C13.3189 7.27354 13.2497 7.17002 13.1625 7.08281C13.0753 6.9956 12.9718 6.92643 12.8578 6.87923C12.7439 6.83204 12.6218 6.80775 12.4984 6.80775C12.3751 6.80775 12.253 6.83204 12.1391 6.87923C12.0251 6.92643 11.9216 6.9956 11.8344 7.08281L5.23438 13.6922C4.44219 11.8172 4.51407 9.97109 5.46876 8.40156C7.10235 5.7039 10.9797 4.20469 15.9375 4.31953C16.0453 9.27578 14.5461 13.1539 11.8484 14.7875Z" fill="black"/>
</svg>
