<svg width="79" height="20" viewBox="0 0 79 20" fill="none" xmlns="http://www.w3.org/2000/svg">
<g clip-path="url(#clip0_604_32537)">
<path fill-rule="evenodd" clip-rule="evenodd" d="M25.3161 4.47266H29.6425C31.0906 4.47266 32.1812 4.87295 32.7961 5.62978C33.3559 6.31902 33.5413 7.30318 33.3477 8.55574C32.9181 11.4187 31.2734 12.8635 28.4235 12.8635H27.0539C26.7585 12.8635 26.5061 13.0888 26.4605 13.3957L25.9886 16.5304C25.9424 16.8372 25.6906 17.0625 25.3946 17.0625H23.3291C23.1071 17.0625 22.9375 16.8558 22.9723 16.6265L24.7221 5.00417C24.7683 4.69798 25.0201 4.47266 25.3161 4.47266ZM27.5698 10.3439C28.7168 10.3439 29.9029 10.3439 30.1395 8.71752C30.2262 8.14625 30.1566 7.7327 29.9295 7.45436C29.5486 6.98779 28.8116 6.98779 28.0304 6.98779H27.7312C27.554 6.98779 27.4022 7.12299 27.375 7.30657L26.917 10.3439H27.5698Z" fill="#253B80"/>
<path fill-rule="evenodd" clip-rule="evenodd" d="M40.5027 8.6653H42.5744C42.7959 8.6653 42.9648 8.87274 42.9293 9.10138L41.8096 16.5299C41.7628 16.8368 41.5123 17.0621 41.2156 17.0621H39.3494C39.1286 17.0621 38.9591 16.8553 38.9939 16.6247L39.0863 16.0216C39.0863 16.0216 38.0633 17.2642 36.2186 17.2642C35.1439 17.2642 34.2405 16.9395 33.6091 16.1601C32.9209 15.3125 32.6394 14.097 32.8374 12.8259C33.2182 10.2777 35.1736 8.46118 37.463 8.46118C38.4612 8.46118 39.4614 8.68916 39.9099 9.37111L40.0548 9.59114L40.1465 8.98408C40.1737 8.8005 40.3262 8.6653 40.5027 8.6653ZM37.3493 14.9618C38.5475 14.9618 39.4869 14.1294 39.6868 12.8894C39.7772 12.289 39.652 11.7442 39.3363 11.3539C39.0213 10.9675 38.543 10.7627 37.9547 10.7627C36.7749 10.7627 35.8197 11.6223 35.633 12.8516C35.5356 13.4547 35.652 13.9962 35.9582 14.3766C36.2669 14.7596 36.7477 14.9618 37.3493 14.9618Z" fill="#253B80"/>
<path d="M53.6083 8.66504H51.5264C51.3277 8.66504 51.1411 8.76843 51.0285 8.9414L48.1571 13.3724L46.94 9.11437C46.8634 8.84795 46.6287 8.66504 46.363 8.66504H44.3172C44.0686 8.66504 43.8959 8.91953 43.9749 9.16474L46.2681 16.2149L44.1122 19.4033C43.9427 19.6544 44.1135 19.9997 44.4064 19.9997H46.4858C46.6831 19.9997 46.8678 19.899 46.9798 19.7293L53.9043 9.25818C54.0701 9.00767 53.8999 8.66504 53.6083 8.66504Z" fill="#253B80"/>
<path fill-rule="evenodd" clip-rule="evenodd" d="M56.1749 4.47266H60.5019C61.9499 4.47266 63.0399 4.87295 63.6542 5.62978C64.214 6.31902 64.4006 7.30318 64.2064 8.55574C63.7763 11.4187 62.1321 12.8635 59.2816 12.8635H57.9126C57.6172 12.8635 57.3648 13.0888 57.3192 13.3957L56.8227 16.6901C56.7904 16.9048 56.6139 17.0625 56.4077 17.0625H54.1872C53.9664 17.0625 53.7969 16.8558 53.8317 16.6265L55.5815 5.00417C55.6277 4.69798 55.8794 4.47266 56.1749 4.47266ZM58.4315 10.344C59.5791 10.344 60.7652 10.344 61.0012 8.71764C61.0878 8.14637 61.0189 7.73282 60.7918 7.45448C60.4109 6.98792 59.6733 6.98792 58.8927 6.98792H58.5935C58.4157 6.98792 58.2651 7.12311 58.2379 7.30669L57.7793 10.344H58.4315Z" fill="#179BD7"/>
<path fill-rule="evenodd" clip-rule="evenodd" d="M71.3616 8.6653H73.4321C73.6541 8.6653 73.8237 8.87274 73.7895 9.10138L72.6692 16.5299C72.623 16.8368 72.3712 17.0621 72.0758 17.0621H70.2102C69.9882 17.0621 69.8186 16.8553 69.8534 16.6247L69.9458 16.0216C69.9458 16.0216 68.9229 17.2642 67.0782 17.2642C66.0034 17.2642 65.1013 16.9395 64.4687 16.1601C63.7804 15.3125 63.5002 14.097 63.6975 12.8259C64.0784 10.2777 66.0331 8.46118 68.3225 8.46118C69.3208 8.46118 70.3203 8.68916 70.7688 9.37111L70.9143 9.59114L71.006 8.98408C71.0326 8.8005 71.1838 8.6653 71.3616 8.6653ZM68.2093 14.9618C69.4074 14.9618 70.3481 14.1294 70.5468 12.8894C70.6385 12.289 70.5132 11.7442 70.1963 11.3539C69.8813 10.9675 69.403 10.7627 68.8147 10.7627C67.6349 10.7627 66.6809 11.6223 66.493 12.8516C66.3969 13.4547 66.512 13.9962 66.8182 14.3766C67.1269 14.7596 67.6089 14.9618 68.2093 14.9618Z" fill="#179BD7"/>
<path d="M75.8765 4.79136L74.1007 16.6264C74.0659 16.8557 74.2355 17.0625 74.4563 17.0625H76.2415C76.5382 17.0625 76.7899 16.8371 76.8355 16.5303L78.5865 4.90866C78.6213 4.67936 78.4518 4.47192 78.231 4.47192H76.232C76.0555 4.47259 75.9037 4.60778 75.8765 4.79136Z" fill="#179BD7"/>
<path d="M5.00638 19.3213L5.33723 17.1197L4.60024 17.1018H1.08105L3.52671 0.856323C3.5343 0.807281 3.55897 0.761552 3.59503 0.729078C3.63109 0.696605 3.67727 0.678711 3.72535 0.678711H9.6592C11.6291 0.678711 12.9886 1.10816 13.6984 1.95579C14.0311 2.35343 14.2431 2.76896 14.3455 3.22625C14.4531 3.70606 14.455 4.27933 14.35 4.97851L14.3424 5.02954V5.47754L14.6751 5.67504C14.9554 5.83078 15.1781 6.00905 15.3489 6.21317C15.6335 6.55315 15.8176 6.98525 15.8954 7.49754C15.9758 8.02441 15.9492 8.65136 15.8176 9.36114C15.6658 10.1776 15.4203 10.8887 15.0889 11.4706C14.7839 12.0068 14.3955 12.4515 13.9343 12.7961C13.4941 13.1235 12.9709 13.372 12.3794 13.531C11.8063 13.6874 11.1528 13.7663 10.436 13.7663H9.97423C9.64401 13.7663 9.32328 13.8909 9.0715 14.1142C8.8191 14.3422 8.65209 14.6537 8.60085 14.9943L8.56605 15.1925L7.98152 19.0728L7.95495 19.2153C7.948 19.2603 7.93598 19.2829 7.91826 19.2981C7.90245 19.312 7.87967 19.3213 7.85753 19.3213H5.00638Z" fill="#253B80"/>
<path d="M14.9893 5.08105V5.08105V5.08105C14.9715 5.19968 14.9513 5.32096 14.9285 5.44556C14.146 9.65456 11.4688 11.1086 8.04957 11.1086H6.30864C5.89049 11.1086 5.53812 11.4267 5.47297 11.8588V11.8588V11.8588L4.58162 17.781L4.32921 19.4597C4.28683 19.7433 4.49559 19.9991 4.76887 19.9991H7.85663C8.22227 19.9991 8.53288 19.7208 8.59045 19.343L8.62081 19.1787L9.20218 15.3136L9.2395 15.1015C9.29644 14.7225 9.60768 14.4441 9.97333 14.4441H10.4351C13.4267 14.4441 15.7686 13.1717 16.4531 9.48954C16.7391 7.95134 16.591 6.66697 15.8344 5.76367C15.6054 5.49128 15.3214 5.26529 14.9893 5.08105Z" fill="#179BD7"/>
<path d="M14.1694 4.73883C14.0498 4.70238 13.9265 4.66925 13.7999 4.63942C13.6728 4.61026 13.5425 4.58442 13.4084 4.56188C12.939 4.48236 12.4247 4.44458 11.8737 4.44458H7.22273C7.10823 4.44458 6.99942 4.47175 6.902 4.52079C6.68755 4.62882 6.52813 4.84156 6.48954 5.10201L5.50015 11.667L5.47168 11.8585C5.53684 11.4264 5.8892 11.1083 6.30735 11.1083H8.04829C11.4675 11.1083 14.1447 9.65364 14.9272 5.4453C14.9507 5.32071 14.9703 5.19943 14.988 5.0808C14.79 4.97079 14.5755 4.87668 14.3446 4.79649C14.2877 4.77661 14.2288 4.75739 14.1694 4.73883Z" fill="#222D65"/>
<path d="M6.49105 5.10236C6.52964 4.84191 6.68906 4.62917 6.90351 4.52181C7.00156 4.47277 7.10974 4.4456 7.22424 4.4456H11.8752C12.4262 4.4456 12.9405 4.48337 13.4099 4.5629C13.544 4.58543 13.6743 4.61128 13.8014 4.64044C13.928 4.67026 14.0513 4.7034 14.1709 4.73985C14.2304 4.75841 14.2892 4.77762 14.3468 4.79684C14.5777 4.87703 14.7921 4.9718 14.9901 5.08115C15.2229 3.52573 14.9882 2.46668 14.1854 1.50771C13.3004 0.451982 11.7031 0 9.65914 0H3.72529C3.30777 0 2.95162 0.318111 2.88709 0.750874L0.415499 17.1634C0.366788 17.4881 0.605913 17.7811 0.918421 17.7811H4.58184L5.50165 11.6674L6.49105 5.10236Z" fill="#253B80"/>
</g>
<defs>
<clipPath id="clip0_604_32537">
<rect width="78.1817" height="19.9998" fill="white" transform="translate(0.40918)"/>
</clipPath>
</defs>
</svg>
