<svg width="24" height="24" viewBox="0 0 24 24" fill="none" xmlns="http://www.w3.org/2000/svg">
<path fill-rule="evenodd" clip-rule="evenodd" d="M19.6803 16.7199L12.0003 21.1293L4.3203 16.7199L6.57897 15.7586L11.3363 18.4893C11.5416 18.608 11.771 18.6666 12.0003 18.6666C12.2296 18.6666 12.4576 18.608 12.6643 18.4893L17.4216 15.7573L19.6803 16.7199ZM11.3363 13.1559C11.5416 13.2746 11.771 13.3333 12.0003 13.3333C12.2296 13.3333 12.4576 13.2746 12.6643 13.1559L17.4216 10.424L19.6803 11.3866L12.0003 15.7959L4.3203 11.3866L6.57897 10.424L11.3363 13.1559ZM12.0003 2.78267L19.6803 6.05334L12.0003 10.4627L4.3203 6.05334L12.0003 2.78267ZM23.9978 11.1306C23.9671 10.6253 23.6538 10.1813 23.1884 9.98263L20.3191 8.7613L23.3311 7.03197C23.7698 6.7813 24.0271 6.30263 23.9978 5.7973C23.9671 5.2933 23.6538 4.84797 23.1884 4.6493L12.5218 0.106634C12.1884 -0.0360329 11.8111 -0.0360329 11.4778 0.106634L0.811095 4.6493C0.345762 4.84797 0.0324285 5.2933 0.00309518 5.7973C-0.0275715 6.30263 0.231095 6.7813 0.669762 7.03197L3.68043 8.7613L0.811095 9.98263C0.345762 10.1813 0.0324285 10.6253 0.00309518 11.1306C-0.0275715 11.636 0.231095 12.1146 0.669762 12.3653L3.68043 14.0946L0.811095 15.316C0.345762 15.5146 0.0324285 15.9586 0.00309518 16.464C-0.0275715 16.9693 0.231095 17.448 0.669762 17.6986L11.3364 23.8226C11.5418 23.9413 11.7711 24 12.0004 24C12.2298 24 12.4578 23.9413 12.6644 23.8226L23.3311 17.6986C23.7698 17.448 24.0271 16.9693 23.9978 16.464C23.9671 15.96 23.6538 15.5146 23.1898 15.316L20.3204 14.0933L23.3311 12.3653C23.7698 12.1146 24.0271 11.636 23.9978 11.1306Z" fill="#03133D"/>
</svg>
