<svg width="28" height="24" viewBox="0 0 28 24" fill="none" xmlns="http://www.w3.org/2000/svg">
<path fill-rule="evenodd" clip-rule="evenodd" d="M24.6667 14.6667C24.6667 15.4013 24.0693 16 23.3333 16H14.116H13.884H4.66666C3.93066 16 3.33332 15.4013 3.33332 14.6667V4C3.33332 3.26533 3.93066 2.66667 4.66666 2.66667H23.3333C24.0693 2.66667 24.6667 3.26533 24.6667 4V14.6667ZM23.3333 0H4.66666C2.46132 0 0.666656 1.79467 0.666656 4V14.6667C0.666656 16.872 2.46132 18.6667 4.66666 18.6667H12.6667V21.3333H7.33332C6.59999 21.3333 5.99999 21.9333 5.99999 22.6667C5.99999 23.4 6.59999 24 7.33332 24H20.6667C21.4 24 22 23.4 22 22.6667C22 21.9333 21.4 21.3333 20.6667 21.3333H15.3333V18.6667H23.3333C25.5387 18.6667 27.3333 16.872 27.3333 14.6667V4C27.3333 1.79467 25.5387 0 23.3333 0Z" fill="#03133D"/>
</svg>
