<svg width="1119" height="402" viewBox="0 0 1119 402" fill="none" xmlns="http://www.w3.org/2000/svg">
<mask id="mask0_28_761" style="mask-type:alpha" maskUnits="userSpaceOnUse" x="0" y="0" width="1119" height="402">
<rect width="1119" height="402" rx="16" fill="white"/>
</mask>
<g mask="url(#mask0_28_761)">
<path d="M-19.2498 142.889H16.2498C16.8051 142.889 17.3353 142.658 17.7137 142.252L46.462 111.371C47.2117 110.565 48.4712 110.517 49.2806 111.262L82.0715 141.454C82.9174 142.233 84.2442 142.14 84.973 141.251L118.007 100.947C118.111 100.82 118.231 100.706 118.363 100.608L154.826 73.5944C155.108 73.3862 155.329 73.1078 155.469 72.7872L184.427 6.42699C185.231 4.58251 187.95 4.94791 188.239 6.93946L218.89 217.999C219.21 220.206 222.355 220.312 222.824 218.133L256.54 61.6042C256.918 59.8492 259.238 59.4424 260.191 60.9642L289.703 108.111C290.315 109.088 291.625 109.347 292.563 108.676L341.532 73.6068C341.834 73.3909 342.069 73.0955 342.212 72.7535L355.964 39.9276C356.567 38.487 358.515 38.2631 359.43 39.5293L395.573 89.5707C395.665 89.699 395.742 89.8378 395.802 89.9842L416.947 141.647C417.255 142.398 417.986 142.889 418.798 142.889H533.995C534.697 142.889 535.347 142.522 535.709 141.921L565.767 91.9813C566.442 90.8594 567.995 90.6782 568.911 91.6146L600.822 124.261C601.818 125.281 603.531 124.96 604.091 123.649L638.81 42.4293C639.577 40.6353 642.196 40.8887 642.604 42.7965L675.48 196.266C675.678 197.188 676.493 197.847 677.436 197.847H705.068C705.932 197.847 706.698 198.401 706.968 199.221L736.12 287.739C736.158 287.854 736.203 287.961 736.255 288.061H739.789C739.875 287.895 739.94 287.71 739.981 287.507L775.031 112.666C775.301 111.319 776.818 110.639 778.003 111.333L802.42 125.64C803.19 126.091 804.166 125.977 804.812 125.36L840.662 91.1289C841.455 90.3724 842.708 90.394 843.474 91.1774L876.448 124.912C877.243 125.725 878.554 125.713 879.334 124.886L910.9 91.3966C911.719 90.5267 913.114 90.5656 913.884 91.4796L956.605 142.178C956.985 142.629 957.545 142.889 958.134 142.889H1141.94C1143.05 142.889 1143.94 143.785 1143.94 144.889V286.061C1143.94 287.165 1143.05 288.061 1141.94 288.061H739.789C739.08 289.438 736.995 289.492 736.255 288.061H-19.2498C-20.3544 288.061 -21.2498 287.165 -21.2498 286.061V144.889C-21.2498 143.785 -20.3544 142.889 -19.2498 142.889Z" fill="url(#paint0_linear_28_761)"/>
<path d="M-21.2498 142.889H16.2498C16.8051 142.889 17.3353 142.658 17.7137 142.252L46.462 111.371C47.2117 110.565 48.4712 110.517 49.2806 111.262L82.0715 141.454C82.9173 142.233 84.2441 142.14 84.973 141.251L118.007 100.947C118.111 100.82 118.231 100.706 118.363 100.608L154.826 73.5944C155.108 73.3862 155.329 73.1078 155.469 72.7872L184.427 6.427C185.231 4.58253 187.95 4.94791 188.239 6.93946L218.89 217.999C219.21 220.206 222.355 220.312 222.824 218.133L256.54 61.6042C256.918 59.8492 259.238 59.4424 260.191 60.9642L289.703 108.111C290.315 109.088 291.625 109.347 292.563 108.676L341.532 73.6068C341.833 73.3909 342.069 73.0955 342.212 72.7535L355.964 39.9276C356.567 38.487 358.515 38.2631 359.43 39.5293L395.573 89.5707C395.665 89.699 395.742 89.8378 395.802 89.9842L416.947 141.647C417.255 142.398 417.986 142.889 418.798 142.889H533.995C534.697 142.889 535.347 142.522 535.709 141.921L565.767 91.9813C566.442 90.8594 567.995 90.6782 568.911 91.6146L600.822 124.261C601.818 125.281 603.531 124.96 604.091 123.649L638.81 42.4293C639.576 40.6353 642.196 40.8887 642.604 42.7965L675.48 196.266C675.678 197.188 676.493 197.847 677.436 197.847H705.068C705.932 197.847 706.698 198.401 706.968 199.221L736.12 287.739C736.763 289.69 739.577 289.521 739.981 287.507L775.031 112.666C775.301 111.319 776.818 110.639 778.003 111.333L802.42 125.64C803.19 126.091 804.166 125.977 804.812 125.36L840.662 91.1289C841.455 90.3724 842.708 90.394 843.474 91.1774L876.448 124.912C877.243 125.725 878.554 125.713 879.334 124.886L910.899 91.3966C911.719 90.5267 913.114 90.5656 913.884 91.4796L956.605 142.178C956.985 142.629 957.545 142.889 958.134 142.889H1143.94" stroke="#00DEA3" stroke-width="3"/>
</g>
<defs>
<linearGradient id="paint0_linear_28_761" x1="581.955" y1="-230.607" x2="581.955" y2="244.564" gradientUnits="userSpaceOnUse">
<stop offset="0.171875" stop-color="#18BFEF"/>
<stop offset="0.880208" stop-color="#D3FF76" stop-opacity="0"/>
</linearGradient>
</defs>
</svg>
