<svg width="44" height="19" viewBox="0 0 44 19" fill="none" xmlns="http://www.w3.org/2000/svg">
<path fill-rule="evenodd" clip-rule="evenodd" d="M23.4766 2.93925L20.4532 3.58811V1.13685L23.4766 0.5V2.93925ZM29.7641 4.29703C28.5837 4.29703 27.8248 4.84977 27.4032 5.23428L27.2466 4.48929H24.5966V18.5L27.608 17.8631L27.62 14.4626C28.0536 14.775 28.6921 15.2196 29.7521 15.2196C31.9082 15.2196 33.8716 13.4893 33.8716 9.68021C33.8596 6.19556 31.8721 4.29703 29.7641 4.29703ZM29.0413 12.576C28.3307 12.576 27.9091 12.3236 27.62 12.0112L27.6079 7.55329C27.9211 7.20482 28.3547 6.9645 29.0413 6.9645C30.1375 6.9645 30.8963 8.19014 30.8963 9.76423C30.8963 11.3744 30.1495 12.576 29.0413 12.576ZM43.3636 9.80036C43.3636 6.72427 41.8699 4.29703 39.0151 4.29703C36.1483 4.29703 34.4138 6.72427 34.4138 9.77633C34.4138 13.3932 36.4615 15.2196 39.4006 15.2196C40.834 15.2196 41.9181 14.8952 42.7372 14.4385V12.0353C41.9181 12.4439 40.9786 12.6962 39.7861 12.6962C38.6176 12.6962 37.5817 12.2877 37.4492 10.8698H43.3395C43.3395 10.8036 43.3438 10.6534 43.3488 10.4803L43.3488 10.4798V10.4796L43.3488 10.4793L43.3488 10.4789L43.3488 10.4786L43.3488 10.4784C43.3556 10.2432 43.3636 9.96616 43.3636 9.80036ZM37.413 8.65879C37.413 7.30098 38.2442 6.73623 39.003 6.73623C39.7378 6.73623 40.5208 7.30098 40.5208 8.65879H37.413ZM20.4529 4.50138H23.4764V15.0154H20.4529V4.50138ZM17.0203 4.5014L17.213 5.39059C17.9237 4.09286 19.333 4.35721 19.7185 4.5014V7.26508C19.3451 7.13291 18.1405 6.96468 17.4298 7.88992V15.0154H14.4185V4.5014H17.0203ZM11.1901 1.89381L8.251 2.51865L8.23895 12.1435C8.23895 13.9218 9.576 15.2316 11.3587 15.2316C12.3465 15.2316 13.0692 15.0513 13.4667 14.8351V12.3958C13.0812 12.552 11.1781 13.1048 11.1781 11.3264V7.0607H13.4667V4.50129H11.1781L11.1901 1.89381ZM4.07138 6.90451C3.43296 6.90451 3.04751 7.08475 3.04751 7.55337C3.04751 8.06504 3.71088 8.29011 4.53387 8.56935C5.87554 9.02456 7.64142 9.62371 7.64889 11.8431C7.64889 13.994 5.92638 15.2316 3.42092 15.2316C2.38501 15.2316 1.25273 15.0273 0.1325 14.5467V11.6869C1.14432 12.2396 2.42114 12.6482 3.42092 12.6482C4.09547 12.6482 4.57729 12.4679 4.57729 11.9152C4.57729 11.3484 3.85817 11.0894 2.99001 10.7766C1.66786 10.3003 0 9.69948 0 7.69757C0 5.57073 1.62614 4.29703 4.07138 4.29703C5.07115 4.29703 6.05888 4.45324 7.05866 4.84977V7.67353C6.1432 7.18088 4.98683 6.90451 4.07138 6.90451Z" fill="white"/>
</svg>
