<svg width="38" height="25" viewBox="0 0 38 25" fill="none" xmlns="http://www.w3.org/2000/svg">
<g clip-path="url(#clip0_604_3128)">
<path d="M35 0.5H3C1.3 0.5 0 1.8 0 3.5V21.5C0 23.2 1.4 24.5 3 24.5H35C36.7 24.5 38 23.2 38 21.5V3.5C38 1.8 36.6 0.5 35 0.5Z" fill="#DEDEDE"/>
<path d="M35 1.5C36.1 1.5 37 2.4 37 3.5V21.5C37 22.6 36.1 23.5 35 23.5H3C1.9 23.5 1 22.6 1 21.5V3.5C1 2.4 1.9 1.5 3 1.5H35Z" fill="white"/>
<path d="M18.183 10.8737C17.322 12.6357 16.844 14.2487 16.278 15.8287C16.111 16.2977 15.976 16.7577 15.371 16.7797C14.698 16.8057 14.56 16.2747 14.387 15.7927C13.923 14.5057 13.477 13.2197 12.995 11.9397C12.89 11.6647 12.858 11.3097 12.47 11.1407C12.261 12.8327 12.042 14.4937 11.862 16.1577C11.805 16.6717 11.672 17.0487 11.094 17.0287C10.428 17.0067 10.465 16.5207 10.521 16.0587C10.787 13.9417 11.054 11.8227 11.333 9.70472C11.389 9.30072 11.439 8.85472 12.004 8.81672C12.529 8.77972 12.963 8.93572 13.19 9.43372C13.659 10.4777 14.097 11.5337 14.565 12.5797C14.834 13.1787 14.956 13.8447 15.384 14.4447C16.067 12.8107 16.593 11.1837 17.374 9.66272C17.585 9.25072 17.81 8.87872 18.328 8.82972C18.871 8.77072 19.251 8.89972 19.329 9.54372C19.585 11.7287 19.866 13.9077 20.148 16.0857C20.208 16.5337 20.231 16.9537 19.649 17.0217C19.065 17.0907 18.883 16.7187 18.821 16.2097C18.625 14.5147 18.418 12.8217 18.183 10.8737V10.8737Z" fill="#010101"/>
<path d="M20.8329 12.8723C20.8329 11.8193 20.8519 10.7693 20.8219 9.71633C20.8059 9.05733 21.0799 8.78833 21.7309 8.80333C22.5919 8.82533 23.4579 8.78833 24.3189 8.81233C26.3079 8.87033 27.2999 10.4123 26.4679 12.2073C26.2919 12.5923 26.4589 12.6913 26.6799 12.8923C27.4789 13.6113 27.6759 14.5213 27.3099 15.5003C26.9359 16.4893 26.1449 16.9993 25.0919 17.0323C23.9739 17.0623 22.8569 17.0283 21.7369 17.0453C21.0969 17.0533 20.8089 16.7953 20.8279 16.1303C20.8519 15.0453 20.8329 13.9593 20.8329 12.8723V12.8723Z" fill="black"/>
<path d="M18.994 21.3495C16.6 21.3495 14.205 21.3525 11.811 21.3475C10.403 21.3425 9.67103 20.2795 10.143 18.9535C10.267 18.6025 10.505 18.4365 10.871 18.4765C11.254 18.5225 11.473 18.8075 11.423 19.1365C11.293 20.0035 11.765 20.0515 12.429 20.0475C16.871 20.0295 21.311 20.0315 25.75 20.0435C26.375 20.0455 26.932 20.0615 26.773 19.1565C26.718 18.8155 26.909 18.5365 27.302 18.4875C27.676 18.4395 27.894 18.6285 28.035 18.9585C28.537 20.1495 27.769 21.3405 26.468 21.3475C23.977 21.3575 21.484 21.3495 18.994 21.3495V21.3495Z" fill="#3B75C4"/>
<path d="M19.1349 4.50195C20.8929 4.50195 22.6489 4.49695 24.4079 4.50295C25.7499 4.50695 26.5159 5.34095 26.4459 6.68795C26.4249 7.04695 26.3239 7.31695 25.9359 7.38095C25.5299 7.44795 25.1699 7.27195 25.1599 6.86895C25.1299 5.86195 24.5169 5.82095 23.7359 5.82895C20.5749 5.85695 17.4139 5.85995 14.2539 5.82695C13.5609 5.81795 13.1569 5.97995 13.0789 6.71795C13.0359 7.13995 12.8229 7.45995 12.3299 7.38095C11.7799 7.29395 11.7559 6.89895 11.7959 6.44195C11.9309 5.05695 12.5059 4.50295 13.8669 4.50195H19.1349V4.50195Z" fill="#3A75C3"/>
<path d="M22.0461 12.8491C22.0461 12.5941 22.0281 12.3391 22.0491 12.0881C22.1021 11.4311 21.7451 10.4351 22.2221 10.1971C22.8931 9.86912 23.8361 10.0131 24.6491 10.0881C24.7863 10.0954 24.9206 10.1309 25.0434 10.1925C25.1663 10.2541 25.275 10.3404 25.3629 10.4461C25.4508 10.5517 25.5159 10.6744 25.5542 10.8064C25.5924 10.9384 25.6029 11.0769 25.5851 11.2131C25.5321 11.7781 25.1381 12.1041 24.5561 12.1541C24.3031 12.1741 24.0501 12.1631 23.7931 12.1581C23.3431 12.1471 22.9211 12.2251 22.9041 12.7761C22.8861 13.3911 23.3481 13.4651 23.8271 13.4681C24.2091 13.4691 24.5911 13.4651 24.9731 13.4691C25.7141 13.4831 26.2171 13.8271 26.2381 14.5961C26.2621 15.3281 25.7371 15.6951 25.0871 15.7471C24.2321 15.8121 23.3691 15.7551 22.5101 15.7711C22.1051 15.7801 22.0411 15.5691 22.0461 15.2321C22.0521 14.4371 22.0461 13.6441 22.0461 12.8491V12.8491Z" fill="#FDFDFD"/>
</g>
<defs>
<clipPath id="clip0_604_3128">
<rect width="38" height="24" fill="white" transform="translate(0 0.5)"/>
</clipPath>
</defs>
</svg>
