<svg width="10" height="12" viewBox="0 0 10 12" fill="none" xmlns="http://www.w3.org/2000/svg">
<path d="M9.43923 0.605759C9.33322 0.415414 9.16828 0.306895 8.97473 0.300137C8.86952 0.296463 8.75701 0.322561 8.64039 0.377874L0.702119 4.1379C0.280845 4.33738 0.213903 4.65647 0.211469 4.82892C0.209036 5.00137 0.267075 5.32006 0.682818 5.51674C0.685311 5.51788 0.687805 5.51901 0.690301 5.52006L2.28581 6.20357L3.04217 9.62254C3.1453 10.0887 3.40298 10.385 3.71473 10.3958C3.9113 10.4027 4.10854 10.2979 4.28514 10.0928L5.32914 8.87986L6.72491 10.5134L6.73864 10.5294L6.74236 10.5336C6.89773 10.7087 7.78216 11.1515 7.95413 11.1576C8.29014 11.1693 7.85802 10.4946 7.95416 9.97595L9.53021 1.47438C9.59349 1.13314 9.5612 0.824687 9.43923 0.605759ZM2.83104 6.10336L4.312 7.6894L3.98624 6.7818C3.95281 6.82648 3.92829 6.88177 3.91505 6.94241L3.4686 8.98523L2.83104 6.10336ZM3.93826 9.54212C3.92477 9.55776 5.3052 6.51132 3.8978 9.58446C2.4904 12.6576 4.312 7.6894 4.312 7.6894L4.92021 8.40126L3.93826 9.54212ZM9.00629 1.31071L7.43024 9.81238C7.41509 9.89374 7.36915 10.0827 7.26816 10.0792C7.21826 10.0774 7.15686 10.0384 7.09504 9.96921L5.51342 8.11828L5.51267 8.11749L4.57159 7.01605L7.52266 3.06948C7.61714 2.94314 7.63221 2.7451 7.5584 2.60011C7.48451 2.45512 7.3432 2.40538 7.2235 2.48223L2.4904 5.51924L0.873191 4.82658L8.80903 1.06771C8.87607 1.03592 8.92228 1.03039 8.94919 1.03133C8.96571 1.03191 8.99499 1.0356 9.00525 1.05416C9.01876 1.07837 9.03421 1.15984 9.00629 1.31071Z" fill="#575C76"/>
</svg>
