<svg width="1771" height="1160" viewBox="0 0 1771 1160" fill="none" xmlns="http://www.w3.org/2000/svg">
<g opacity="0.7">
<mask id="mask0_1728_466" style="mask-type:alpha" maskUnits="userSpaceOnUse" x="182" y="0" width="1457" height="1081">
<rect x="182.58" width="1456" height="1081" fill="white"/>
</mask>
<g mask="url(#mask0_1728_466)">
<g filter="url(#filter0_f_1728_466)">
<path d="M199.278 430.036L453.638 430.036C453.638 430.036 962.36 1026.65 199.278 1161.64L199.278 430.036Z" fill="#EEF3FF"/>
</g>
<g filter="url(#filter1_f_1728_466)">
<path d="M1710.85 1106.13L234.052 1106.13C234.052 1106.13 1317.31 257.236 1560.65 618.352C1790.89 960.022 1710.85 1106.13 1710.85 1106.13Z" fill="#5280FF" fill-opacity="0.06"/>
</g>
<g filter="url(#filter2_f_1728_466)">
<path d="M910.087 736.105L1422.46 1246.55C1422.46 1246.55 1049 935.675 714.297 1226.2L910.087 736.105Z" fill="#00FFFF" fill-opacity="0.04"/>
</g>
<g filter="url(#filter3_f_1728_466)">
<path d="M468.67 542.353L-160.849 179.463C-160.849 179.463 281.863 384.873 528.552 19.2184L468.67 542.353Z" fill="#00FFFF" fill-opacity="0.04"/>
</g>
<g filter="url(#filter4_f_1728_466)">
<path d="M223.412 402.649L223.412 -2.40814C223.412 -2.40814 482.296 294.708 372.168 361.452C267.971 424.601 223.412 402.649 223.412 402.649Z" fill="#5280FF" fill-opacity="0.08"/>
</g>
</g>
<g opacity="0.6">
<path d="M0.168762 1159.66C41.9984 1114.19 211.499 874.264 516.067 874.264C896.777 874.264 1109.56 1433.31 1683.66 971.488" stroke="white" stroke-width="0.987317"/>
<path d="M0.168762 658.175C41.9984 612.699 211.499 372.773 516.067 372.773C896.777 372.773 1109.56 931.815 1683.66 469.998" stroke="white" stroke-width="0.987317"/>
<path d="M0.168762 1143.49C41.9984 1098.01 211.499 858.087 516.067 858.087C896.777 858.087 1109.56 1417.13 1683.66 955.312" stroke="white" stroke-width="0.987317"/>
<path d="M0.168762 1127.31C41.9984 1081.84 211.499 841.91 516.067 841.91C896.777 841.91 1109.56 1400.95 1683.66 939.135" stroke="white" stroke-width="0.987317"/>
<path d="M0.168762 1111.13C41.9984 1065.66 211.499 825.733 516.067 825.733C896.777 825.733 1109.56 1384.77 1683.66 922.957" stroke="white" stroke-width="0.987317"/>
<path d="M0.168762 1094.96C41.9984 1049.48 211.499 809.555 516.067 809.555C896.777 809.555 1109.56 1368.6 1683.66 906.78" stroke="white" stroke-width="0.987317"/>
<path d="M0.168762 1078.78C41.9984 1033.3 211.499 793.378 516.067 793.378C896.777 793.378 1109.56 1352.42 1683.66 890.603" stroke="white" stroke-width="0.987317"/>
<path d="M0.168762 1062.6C41.9984 1017.13 211.499 777.201 516.067 777.201C896.777 777.201 1109.56 1336.24 1683.66 874.426" stroke="white" stroke-width="0.987317"/>
<path d="M0.168762 1046.43C41.9984 1000.95 211.499 761.024 516.067 761.024C896.777 761.024 1109.56 1320.07 1683.66 858.249" stroke="white" stroke-width="0.987317"/>
<path d="M0.168762 1030.25C41.9984 984.773 211.499 744.847 516.067 744.847C896.777 744.847 1109.56 1303.89 1683.66 842.072" stroke="white" stroke-width="0.987317"/>
<path d="M0.168762 1014.07C41.9984 968.595 211.499 728.67 516.067 728.67C896.777 728.67 1109.56 1287.71 1683.66 825.895" stroke="white" stroke-width="0.987317"/>
<path d="M0.168762 997.894C41.9984 952.418 211.499 712.493 516.067 712.493C896.777 712.493 1109.56 1271.53 1683.66 809.718" stroke="white" stroke-width="0.987317"/>
<path d="M0.168762 981.717C41.9984 936.241 211.499 696.316 516.067 696.316C896.777 696.316 1109.56 1255.36 1683.66 793.541" stroke="white" stroke-width="0.987317"/>
<path d="M0.168762 965.54C41.9984 920.064 211.499 680.139 516.067 680.139C896.777 680.139 1109.56 1239.18 1683.66 777.364" stroke="white" stroke-width="0.987317"/>
<path d="M0.168762 949.363C41.9984 903.887 211.499 663.961 516.067 663.961C896.777 663.961 1109.56 1223 1683.66 761.186" stroke="white" stroke-width="0.987317"/>
<path d="M0.168762 933.186C41.9984 887.71 211.499 647.784 516.067 647.784C896.777 647.784 1109.56 1206.83 1683.66 745.009" stroke="white" stroke-width="0.987317"/>
<path d="M0.168762 917.009C41.9984 871.533 211.499 631.607 516.067 631.607C896.777 631.607 1109.56 1190.65 1683.66 728.832" stroke="white" stroke-width="0.987317"/>
<path d="M0.168762 900.831C41.9984 855.355 211.499 615.43 516.067 615.43C896.777 615.43 1109.56 1174.47 1683.66 712.655" stroke="white" stroke-width="0.987317"/>
<path d="M0.168762 884.654C41.9984 839.178 211.499 599.253 516.067 599.253C896.777 599.253 1109.56 1158.29 1683.66 696.478" stroke="white" stroke-width="0.987317"/>
<path d="M0.168762 868.477C41.9984 823.001 211.499 583.076 516.067 583.076C896.777 583.076 1109.56 1142.12 1683.66 680.301" stroke="white" stroke-width="0.987317"/>
<path d="M0.168762 852.3C41.9984 806.824 211.499 566.899 516.067 566.899C896.777 566.899 1109.56 1125.94 1683.66 664.124" stroke="white" stroke-width="0.987317"/>
<path d="M0.168762 836.123C41.9984 790.647 211.499 550.721 516.067 550.721C896.777 550.721 1109.56 1109.76 1683.66 647.946" stroke="white" stroke-width="0.987317"/>
<path d="M0.168762 819.945C41.9984 774.469 211.499 534.544 516.067 534.544C896.777 534.544 1109.56 1093.59 1683.66 631.769" stroke="white" stroke-width="0.987317"/>
<path d="M0.168762 803.769C41.9984 758.293 211.499 518.368 516.067 518.368C896.777 518.368 1109.56 1077.41 1683.66 615.592" stroke="white" stroke-width="0.987317"/>
<path d="M0.168762 787.591C41.9984 742.115 211.499 502.19 516.067 502.19C896.777 502.19 1109.56 1061.23 1683.66 599.415" stroke="white" stroke-width="0.987317"/>
<path d="M0.168762 771.414C41.9984 725.938 211.499 486.013 516.067 486.013C896.777 486.013 1109.56 1045.05 1683.66 583.238" stroke="white" stroke-width="0.987317"/>
<path d="M0.168762 755.237C41.9984 709.761 211.499 469.836 516.067 469.836C896.777 469.836 1109.56 1028.88 1683.66 567.061" stroke="white" stroke-width="0.987317"/>
<path d="M0.168762 739.061C41.9984 693.585 211.499 453.659 516.067 453.659C896.777 453.659 1109.56 1012.7 1683.66 550.884" stroke="white" stroke-width="0.987317"/>
<path d="M0.168762 722.883C41.9984 677.407 211.499 437.482 516.067 437.482C896.777 437.482 1109.56 996.523 1683.66 534.707" stroke="white" stroke-width="0.987317"/>
<path d="M0.168762 706.706C41.9984 661.23 211.499 421.305 516.067 421.305C896.777 421.305 1109.56 980.346 1683.66 518.529" stroke="white" stroke-width="0.987317"/>
<path d="M0.168762 690.529C41.9984 645.053 211.499 405.127 516.067 405.127C896.777 405.127 1109.56 964.169 1683.66 502.352" stroke="white" stroke-width="0.987317"/>
<path d="M0.168762 674.352C41.9984 628.876 211.499 388.951 516.067 388.951C896.777 388.951 1109.56 947.992 1683.66 486.175" stroke="white" stroke-width="0.987317"/>
</g>
<g opacity="0.8">
<path d="M86.6791 469.072C128.509 442.167 298.01 300.218 602.577 300.218C983.287 300.218 1196.07 630.968 1770.17 357.74" stroke="white" stroke-width="0.987317"/>
<path d="M86.6791 172.371C128.509 145.466 298.01 3.51697 602.577 3.51697C983.287 3.51697 1196.07 334.267 1770.17 61.0387" stroke="white" stroke-width="0.987317"/>
<path d="M86.6791 459.501C128.509 432.596 298.01 290.647 602.577 290.647C983.287 290.647 1196.07 621.397 1770.17 348.169" stroke="white" stroke-width="0.987317"/>
<path d="M86.6791 449.93C128.509 423.025 298.01 281.076 602.577 281.076C983.287 281.076 1196.07 611.826 1770.17 338.598" stroke="white" stroke-width="0.987317"/>
<path d="M86.6791 440.359C128.509 413.454 298.01 271.505 602.577 271.505C983.287 271.505 1196.07 602.255 1770.17 329.027" stroke="white" stroke-width="0.987317"/>
<path d="M86.6791 430.788C128.509 403.883 298.01 261.934 602.577 261.934C983.287 261.934 1196.07 592.684 1770.17 319.456" stroke="white" stroke-width="0.987317"/>
<path d="M86.6791 421.217C128.509 394.312 298.01 252.363 602.577 252.363C983.287 252.363 1196.07 583.113 1770.17 309.885" stroke="white" stroke-width="0.987317"/>
<path d="M86.6791 411.646C128.509 384.741 298.01 242.792 602.577 242.792C983.287 242.792 1196.07 573.542 1770.17 300.314" stroke="white" stroke-width="0.987317"/>
<path d="M86.6791 402.075C128.509 375.17 298.01 233.221 602.577 233.221C983.287 233.221 1196.07 563.971 1770.17 290.743" stroke="white" stroke-width="0.987317"/>
<path d="M86.6791 392.504C128.509 365.599 298.01 223.65 602.577 223.65C983.287 223.65 1196.07 554.4 1770.17 281.172" stroke="white" stroke-width="0.987317"/>
<path d="M86.6791 382.933C128.509 356.028 298.01 214.079 602.577 214.079C983.287 214.079 1196.07 544.829 1770.17 271.601" stroke="white" stroke-width="0.987317"/>
<path d="M86.6791 373.362C128.509 346.457 298.01 204.508 602.577 204.508C983.287 204.508 1196.07 535.258 1770.17 262.03" stroke="white" stroke-width="0.987317"/>
<path d="M86.6791 363.791C128.509 336.886 298.01 194.937 602.577 194.937C983.287 194.937 1196.07 525.687 1770.17 252.459" stroke="white" stroke-width="0.987317"/>
<path d="M86.6791 354.22C128.509 327.315 298.01 185.366 602.577 185.366C983.287 185.366 1196.07 516.116 1770.17 242.888" stroke="white" stroke-width="0.987317"/>
<path d="M86.6791 344.649C128.509 317.744 298.01 175.795 602.577 175.795C983.287 175.795 1196.07 506.545 1770.17 233.317" stroke="white" stroke-width="0.987317"/>
<path d="M86.6791 335.078C128.509 308.173 298.01 166.224 602.577 166.224C983.287 166.224 1196.07 496.974 1770.17 223.746" stroke="white" stroke-width="0.987317"/>
<path d="M86.6791 325.507C128.509 298.602 298.01 156.653 602.577 156.653C983.287 156.653 1196.07 487.403 1770.17 214.175" stroke="white" stroke-width="0.987317"/>
<path d="M86.6791 315.936C128.509 289.031 298.01 147.082 602.577 147.082C983.287 147.082 1196.07 477.832 1770.17 204.604" stroke="white" stroke-width="0.987317"/>
<path d="M86.6791 306.365C128.509 279.46 298.01 137.511 602.577 137.511C983.287 137.511 1196.07 468.261 1770.17 195.033" stroke="white" stroke-width="0.987317"/>
<path d="M86.6791 296.794C128.509 269.889 298.01 127.94 602.577 127.94C983.287 127.94 1196.07 458.69 1770.17 185.462" stroke="white" stroke-width="0.987317"/>
<path d="M86.6791 287.223C128.509 260.318 298.01 118.369 602.577 118.369C983.287 118.369 1196.07 449.119 1770.17 175.891" stroke="white" stroke-width="0.987317"/>
<path d="M86.6791 277.652C128.509 250.747 298.01 108.798 602.577 108.798C983.287 108.798 1196.07 439.548 1770.17 166.32" stroke="white" stroke-width="0.987317"/>
<path d="M86.6791 268.081C128.509 241.176 298.01 99.2268 602.577 99.2268C983.287 99.2268 1196.07 429.977 1770.17 156.749" stroke="white" stroke-width="0.987317"/>
<path d="M86.6791 258.51C128.509 231.605 298.01 89.6561 602.577 89.6561C983.287 89.6561 1196.07 420.406 1770.17 147.178" stroke="white" stroke-width="0.987317"/>
<path d="M86.6791 248.939C128.509 222.034 298.01 80.085 602.577 80.085C983.287 80.085 1196.07 410.835 1770.17 137.607" stroke="white" stroke-width="0.987317"/>
<path d="M86.6791 239.368C128.509 212.463 298.01 70.5139 602.577 70.5139C983.287 70.5139 1196.07 401.264 1770.17 128.036" stroke="white" stroke-width="0.987317"/>
<path d="M86.6791 229.797C128.509 202.892 298.01 60.9427 602.577 60.9427C983.287 60.9427 1196.07 391.693 1770.17 118.465" stroke="white" stroke-width="0.987317"/>
<path d="M86.6791 220.226C128.509 193.321 298.01 51.3721 602.577 51.3721C983.287 51.3721 1196.07 382.122 1770.17 108.894" stroke="white" stroke-width="0.987317"/>
<path d="M86.6791 210.655C128.509 183.75 298.01 41.801 602.577 41.801C983.287 41.801 1196.07 372.551 1770.17 99.3228" stroke="white" stroke-width="0.987317"/>
<path d="M86.6791 201.084C128.509 174.179 298.01 32.2299 602.577 32.2299C983.287 32.2299 1196.07 362.98 1770.17 89.7516" stroke="white" stroke-width="0.987317"/>
<path d="M86.6791 191.513C128.509 164.608 298.01 22.6587 602.577 22.6587C983.287 22.6587 1196.07 353.409 1770.17 80.1805" stroke="white" stroke-width="0.987317"/>
<path d="M86.6791 181.942C128.509 155.037 298.01 13.088 602.577 13.088C983.287 13.088 1196.07 343.838 1770.17 70.6098" stroke="white" stroke-width="0.987317"/>
</g>
</g>
<defs>
<filter id="filter0_f_1728_466" x="31.4337" y="262.192" width="756.162" height="1067.29" filterUnits="userSpaceOnUse" color-interpolation-filters="sRGB">
<feFlood flood-opacity="0" result="BackgroundImageFix"/>
<feBlend mode="normal" in="SourceGraphic" in2="BackgroundImageFix" result="shape"/>
<feGaussianBlur stdDeviation="83.9219" result="effect1_foregroundBlur_1728_466"/>
</filter>
<filter id="filter1_f_1728_466" x="66.2076" y="361.057" width="1825.95" height="912.92" filterUnits="userSpaceOnUse" color-interpolation-filters="sRGB">
<feFlood flood-opacity="0" result="BackgroundImageFix"/>
<feBlend mode="normal" in="SourceGraphic" in2="BackgroundImageFix" result="shape"/>
<feGaussianBlur stdDeviation="83.9219" result="effect1_foregroundBlur_1728_466"/>
</filter>
<filter id="filter2_f_1728_466" x="546.453" y="568.261" width="1043.85" height="846.131" filterUnits="userSpaceOnUse" color-interpolation-filters="sRGB">
<feFlood flood-opacity="0" result="BackgroundImageFix"/>
<feBlend mode="normal" in="SourceGraphic" in2="BackgroundImageFix" result="shape"/>
<feGaussianBlur stdDeviation="83.9219" result="effect1_foregroundBlur_1728_466"/>
</filter>
<filter id="filter3_f_1728_466" x="-328.693" y="-148.626" width="1025.09" height="858.822" filterUnits="userSpaceOnUse" color-interpolation-filters="sRGB">
<feFlood flood-opacity="0" result="BackgroundImageFix"/>
<feBlend mode="normal" in="SourceGraphic" in2="BackgroundImageFix" result="shape"/>
<feGaussianBlur stdDeviation="83.9219" result="effect1_foregroundBlur_1728_466"/>
</filter>
<filter id="filter4_f_1728_466" x="55.5683" y="-170.252" width="511.723" height="744.437" filterUnits="userSpaceOnUse" color-interpolation-filters="sRGB">
<feFlood flood-opacity="0" result="BackgroundImageFix"/>
<feBlend mode="normal" in="SourceGraphic" in2="BackgroundImageFix" result="shape"/>
<feGaussianBlur stdDeviation="83.9219" result="effect1_foregroundBlur_1728_466"/>
</filter>
</defs>
</svg>
