<svg width="225" height="29" viewBox="0 0 225 29" fill="none" xmlns="http://www.w3.org/2000/svg">
<path fill-rule="evenodd" clip-rule="evenodd" d="M32.8343 10.5679C32.8727 9.74035 33.5748 9.10069 34.4023 9.13916C38.6864 9.33832 42.0001 10.0339 44.2677 11.5426C46.6806 13.1481 47.7137 15.5335 47.7137 18.4941V18.6585C47.7137 20.2559 47.4171 21.7234 46.7074 23.0074C45.9918 24.302 44.9131 25.3067 43.5196 26.059C40.8111 27.5213 36.818 28.0783 31.544 28.0783H16.2885C11.0145 28.0783 7.02138 27.5213 4.31293 26.059C2.91933 25.3067 1.84068 24.302 1.12509 23.0074C0.415374 21.7234 0.118805 20.2559 0.118805 18.6585V18.4941C0.118805 15.5567 1.13655 13.1836 3.51565 11.5781C5.75328 10.0681 9.02087 9.36427 13.237 9.15209C14.0643 9.11045 14.7688 9.74742 14.8105 10.5748C14.8521 11.4022 14.2151 12.1067 13.3878 12.1483C9.30823 12.3536 6.72904 13.0288 5.1938 14.0649C3.80002 15.0054 3.1188 16.3455 3.1188 18.4941V18.6585C3.1188 19.8887 3.34657 20.825 3.7507 21.5561C4.14896 22.2766 4.77366 22.8985 5.73811 23.4192C7.74575 24.503 11.0875 25.0783 16.2885 25.0783H31.544C36.745 25.0783 40.0867 24.503 42.0944 23.4192C43.0588 22.8985 43.6835 22.2766 44.0818 21.5561C44.4859 20.825 44.7137 19.8887 44.7137 18.6585V18.4941C44.7137 16.3308 44.0243 14.9841 42.6058 14.0403C41.0419 12.9997 38.4151 12.329 34.263 12.1359C33.4355 12.0975 32.7958 11.3954 32.8343 10.5679Z" fill="#5A55D2"/>
<path fill-rule="evenodd" clip-rule="evenodd" d="M23.929 2.45752C24.7575 2.45752 25.429 3.12909 25.429 3.95752V18.3548C25.429 19.1832 24.7575 19.8548 23.929 19.8548C23.1006 19.8548 22.429 19.1832 22.429 18.3548V3.95752C22.429 3.12909 23.1006 2.45752 23.929 2.45752Z" fill="#5A55D2"/>
<path fill-rule="evenodd" clip-rule="evenodd" d="M23.214 1.22078C23.6587 0.980686 24.1944 0.980686 24.6392 1.22078L32.4896 5.459C33.2185 5.85256 33.4904 6.76255 33.0969 7.49152C32.7033 8.2205 31.7933 8.49241 31.0644 8.09886L23.9266 4.24535L16.7888 8.09886C16.0598 8.49241 15.1498 8.2205 14.7563 7.49152C14.3627 6.76255 14.6346 5.85256 15.3636 5.459L23.214 1.22078Z" fill="#5A55D2"/>
<path d="M220.702 10.0654C220.062 10.0654 219.494 9.92543 218.998 9.64543C218.502 9.36543 218.11 8.98143 217.822 8.49343C217.534 7.99743 217.39 7.43743 217.39 6.81343C217.39 6.18143 217.534 5.62142 217.822 5.13342C218.11 4.64542 218.502 4.26543 218.998 3.99343C219.494 3.71343 220.062 3.57343 220.702 3.57343C221.334 3.57343 221.898 3.71343 222.394 3.99343C222.898 4.26543 223.29 4.64542 223.57 5.13342C223.858 5.61342 224.002 6.17342 224.002 6.81343C224.002 7.44543 223.858 8.00543 223.57 8.49343C223.29 8.98143 222.898 9.36543 222.394 9.64543C221.898 9.92543 221.334 10.0654 220.702 10.0654ZM220.702 9.05743C221.11 9.05743 221.474 8.96543 221.794 8.78143C222.122 8.59743 222.378 8.33742 222.562 8.00142C222.746 7.65742 222.838 7.26143 222.838 6.81343C222.838 6.35742 222.746 5.96543 222.562 5.63743C222.378 5.30143 222.122 5.04142 221.794 4.85742C221.474 4.67342 221.11 4.58142 220.702 4.58142C220.294 4.58142 219.93 4.67342 219.61 4.85742C219.29 5.04142 219.034 5.30143 218.842 5.63743C218.65 5.96543 218.554 6.35742 218.554 6.81343C218.554 7.26143 218.65 7.65742 218.842 8.00142C219.034 8.33742 219.29 8.59743 219.61 8.78143C219.93 8.96543 220.294 9.05743 220.702 9.05743Z" fill="#646464"/>
<path d="M213.462 10.0654C212.782 10.0654 212.182 9.92543 211.662 9.64543C211.15 9.36543 210.75 8.98143 210.462 8.49343C210.182 8.00543 210.042 7.44543 210.042 6.81343C210.042 6.18143 210.178 5.62142 210.45 5.13342C210.73 4.64542 211.11 4.26543 211.59 3.99343C212.078 3.71343 212.626 3.57343 213.234 3.57343C213.85 3.57343 214.394 3.70942 214.866 3.98142C215.338 4.25343 215.706 4.63742 215.97 5.13342C216.242 5.62142 216.378 6.19343 216.378 6.84943C216.378 6.89743 216.374 6.95343 216.366 7.01743C216.366 7.08143 216.362 7.14142 216.354 7.19742H210.942V6.36942H215.754L215.286 6.65742C215.294 6.24942 215.21 5.88542 215.034 5.56542C214.858 5.24542 214.614 4.99743 214.302 4.82142C213.998 4.63742 213.642 4.54542 213.234 4.54542C212.834 4.54542 212.478 4.63742 212.166 4.82142C211.854 4.99743 211.61 5.24943 211.434 5.57743C211.258 5.89743 211.17 6.26543 211.17 6.68143V6.87343C211.17 7.29743 211.266 7.67742 211.458 8.01342C211.658 8.34142 211.934 8.59743 212.286 8.78143C212.638 8.96543 213.042 9.05743 213.498 9.05743C213.874 9.05743 214.214 8.99343 214.518 8.86543C214.83 8.73743 215.102 8.54542 215.334 8.28942L215.97 9.03343C215.682 9.36943 215.322 9.62542 214.89 9.80142C214.466 9.97742 213.99 10.0654 213.462 10.0654Z" fill="#646464"/>
<path d="M205.079 10.0654C204.463 10.0654 203.911 9.92942 203.423 9.65742C202.943 9.38542 202.563 9.00542 202.283 8.51742C202.003 8.02942 201.863 7.46142 201.863 6.81342C201.863 6.16542 202.003 5.60142 202.283 5.12142C202.563 4.63342 202.943 4.25342 203.423 3.98142C203.911 3.70942 204.463 3.57342 205.079 3.57342C205.615 3.57342 206.099 3.69342 206.531 3.93342C206.963 4.17342 207.307 4.53342 207.563 5.01342C207.827 5.49342 207.959 6.09342 207.959 6.81342C207.959 7.53342 207.831 8.13342 207.575 8.61342C207.327 9.09342 206.987 9.45742 206.555 9.70542C206.123 9.94542 205.631 10.0654 205.079 10.0654ZM205.175 9.05742C205.575 9.05742 205.935 8.96542 206.255 8.78142C206.583 8.59742 206.839 8.33742 207.023 8.00142C207.215 7.65742 207.311 7.26142 207.311 6.81342C207.311 6.35742 207.215 5.96542 207.023 5.63742C206.839 5.30142 206.583 5.04142 206.255 4.85742C205.935 4.67342 205.575 4.58142 205.175 4.58142C204.767 4.58142 204.403 4.67342 204.083 4.85742C203.763 5.04142 203.507 5.30142 203.315 5.63742C203.123 5.96542 203.027 6.35742 203.027 6.81342C203.027 7.26142 203.123 7.65742 203.315 8.00142C203.507 8.33742 203.763 8.59742 204.083 8.78142C204.403 8.96542 204.767 9.05742 205.175 9.05742ZM207.347 9.99342V8.27742L207.419 6.80142L207.299 5.32542V1.08942H208.451V9.99342H207.347Z" fill="#646464"/>
<path d="M199.099 9.99342V3.63342H200.251V9.99342H199.099ZM199.675 2.40942C199.451 2.40942 199.263 2.33742 199.111 2.19342C198.967 2.04942 198.895 1.87342 198.895 1.66542C198.895 1.44942 198.967 1.26942 199.111 1.12542C199.263 0.981424 199.451 0.909424 199.675 0.909424C199.899 0.909424 200.083 0.981424 200.227 1.12542C200.379 1.26142 200.455 1.43342 200.455 1.64142C200.455 1.85742 200.383 2.04142 200.239 2.19342C200.095 2.33742 199.907 2.40942 199.675 2.40942Z" fill="#646464"/>
<path d="M193.324 9.99345L189.628 1.59344H190.924L194.32 9.34545H193.576L196.996 1.59344H198.196L194.512 9.99345H193.324Z" fill="#646464"/>
<path d="M182.008 12.3934C181.424 12.3934 180.856 12.3094 180.304 12.1414C179.76 11.9814 179.316 11.7494 178.972 11.4454L179.524 10.5574C179.82 10.8134 180.184 11.0134 180.616 11.1574C181.048 11.3094 181.5 11.3854 181.972 11.3854C182.724 11.3854 183.276 11.2094 183.628 10.8574C183.98 10.5054 184.156 9.96942 184.156 9.24942V7.90543L184.276 6.64542L184.216 5.37343V3.63342H185.308V9.12943C185.308 10.2494 185.028 11.0734 184.468 11.6014C183.908 12.1294 183.088 12.3934 182.008 12.3934ZM181.864 9.72943C181.248 9.72943 180.696 9.60143 180.208 9.34543C179.728 9.08143 179.344 8.71743 179.056 8.25343C178.776 7.78943 178.636 7.25342 178.636 6.64542C178.636 6.02942 178.776 5.49343 179.056 5.03743C179.344 4.57343 179.728 4.21343 180.208 3.95743C180.696 3.70143 181.248 3.57343 181.864 3.57343C182.408 3.57343 182.904 3.68542 183.352 3.90942C183.8 4.12542 184.156 4.46143 184.42 4.91743C184.692 5.37343 184.828 5.94942 184.828 6.64542C184.828 7.33342 184.692 7.90543 184.42 8.36143C184.156 8.81743 183.8 9.16142 183.352 9.39342C182.904 9.61742 182.408 9.72943 181.864 9.72943ZM181.996 8.72143C182.42 8.72143 182.796 8.63343 183.124 8.45743C183.452 8.28143 183.708 8.03743 183.892 7.72543C184.084 7.41343 184.18 7.05342 184.18 6.64542C184.18 6.23742 184.084 5.87742 183.892 5.56542C183.708 5.25342 183.452 5.01343 183.124 4.84543C182.796 4.66943 182.42 4.58142 181.996 4.58142C181.572 4.58142 181.192 4.66943 180.856 4.84543C180.528 5.01343 180.268 5.25342 180.076 5.56542C179.892 5.87742 179.8 6.23742 179.8 6.64542C179.8 7.05342 179.892 7.41343 180.076 7.72543C180.268 8.03743 180.528 8.28143 180.856 8.45743C181.192 8.63343 181.572 8.72143 181.996 8.72143Z" fill="#646464"/>
<path d="M174.452 3.57343C174.972 3.57343 175.428 3.67342 175.82 3.87342C176.22 4.07342 176.532 4.37743 176.756 4.78543C176.98 5.19343 177.092 5.70943 177.092 6.33343V9.99343H175.94V6.46543C175.94 5.84943 175.788 5.38543 175.484 5.07343C175.188 4.76143 174.768 4.60542 174.224 4.60542C173.816 4.60542 173.46 4.68543 173.156 4.84543C172.852 5.00543 172.616 5.24143 172.448 5.55343C172.288 5.86543 172.208 6.25343 172.208 6.71743V9.99343H171.056V3.63342H172.16V5.34943L171.98 4.89342C172.188 4.47742 172.508 4.15342 172.94 3.92142C173.372 3.68942 173.876 3.57343 174.452 3.57343Z" fill="#646464"/>
<path d="M166.163 10.0654C165.523 10.0654 164.955 9.92543 164.459 9.64543C163.963 9.36543 163.571 8.98143 163.283 8.49343C162.995 7.99743 162.851 7.43743 162.851 6.81343C162.851 6.18143 162.995 5.62142 163.283 5.13342C163.571 4.64542 163.963 4.26543 164.459 3.99343C164.955 3.71343 165.523 3.57343 166.163 3.57343C166.795 3.57343 167.359 3.71343 167.855 3.99343C168.359 4.26543 168.751 4.64542 169.031 5.13342C169.319 5.61342 169.463 6.17342 169.463 6.81343C169.463 7.44543 169.319 8.00543 169.031 8.49343C168.751 8.98143 168.359 9.36543 167.855 9.64543C167.359 9.92543 166.795 10.0654 166.163 10.0654ZM166.163 9.05743C166.571 9.05743 166.935 8.96543 167.255 8.78143C167.583 8.59743 167.839 8.33742 168.023 8.00142C168.207 7.65742 168.299 7.26143 168.299 6.81343C168.299 6.35742 168.207 5.96543 168.023 5.63743C167.839 5.30143 167.583 5.04142 167.255 4.85742C166.935 4.67342 166.571 4.58142 166.163 4.58142C165.755 4.58142 165.391 4.67342 165.071 4.85742C164.751 5.04142 164.495 5.30143 164.303 5.63743C164.111 5.96543 164.015 6.35742 164.015 6.81343C164.015 7.26143 164.111 7.65742 164.303 8.00142C164.495 8.33742 164.751 8.59743 165.071 8.78143C165.391 8.96543 165.755 9.05743 166.163 9.05743Z" fill="#646464"/>
<path d="M156.564 9.99345V1.59344H157.764V8.94945H162.312V9.99345H156.564Z" fill="#646464"/>
<path d="M147.672 12.3934C147.088 12.3934 146.52 12.3094 145.968 12.1414C145.424 11.9814 144.98 11.7494 144.636 11.4454L145.188 10.5574C145.484 10.8134 145.848 11.0134 146.28 11.1574C146.712 11.3094 147.164 11.3854 147.636 11.3854C148.388 11.3854 148.94 11.2094 149.292 10.8574C149.644 10.5054 149.82 9.96942 149.82 9.24942V7.90543L149.94 6.64542L149.88 5.37343V3.63342H150.972V9.12943C150.972 10.2494 150.692 11.0734 150.132 11.6014C149.572 12.1294 148.752 12.3934 147.672 12.3934ZM147.528 9.72943C146.912 9.72943 146.36 9.60143 145.872 9.34543C145.392 9.08143 145.008 8.71743 144.72 8.25343C144.44 7.78943 144.3 7.25342 144.3 6.64542C144.3 6.02942 144.44 5.49343 144.72 5.03743C145.008 4.57343 145.392 4.21343 145.872 3.95743C146.36 3.70143 146.912 3.57343 147.528 3.57343C148.072 3.57343 148.568 3.68542 149.016 3.90942C149.464 4.12542 149.82 4.46143 150.084 4.91743C150.356 5.37343 150.492 5.94942 150.492 6.64542C150.492 7.33342 150.356 7.90543 150.084 8.36143C149.82 8.81743 149.464 9.16142 149.016 9.39342C148.568 9.61742 148.072 9.72943 147.528 9.72943ZM147.66 8.72143C148.084 8.72143 148.46 8.63343 148.788 8.45743C149.116 8.28143 149.372 8.03743 149.556 7.72543C149.748 7.41343 149.844 7.05342 149.844 6.64542C149.844 6.23742 149.748 5.87742 149.556 5.56542C149.372 5.25342 149.116 5.01343 148.788 4.84543C148.46 4.66943 148.084 4.58142 147.66 4.58142C147.236 4.58142 146.856 4.66943 146.52 4.84543C146.192 5.01343 145.932 5.25342 145.74 5.56542C145.556 5.87742 145.464 6.23742 145.464 6.64542C145.464 7.05342 145.556 7.41343 145.74 7.72543C145.932 8.03743 146.192 8.28143 146.52 8.45743C146.856 8.63343 147.236 8.72143 147.66 8.72143Z" fill="#646464"/>
<path d="M141.664 9.99343V8.64943L141.604 8.39743V6.10542C141.604 5.61742 141.46 5.24143 141.172 4.97743C140.892 4.70543 140.468 4.56943 139.9 4.56943C139.524 4.56943 139.156 4.63342 138.796 4.76143C138.436 4.88142 138.132 5.04542 137.884 5.25343L137.404 4.38943C137.732 4.12543 138.124 3.92543 138.58 3.78942C139.044 3.64542 139.528 3.57343 140.032 3.57343C140.904 3.57343 141.576 3.78542 142.048 4.20942C142.52 4.63342 142.756 5.28143 142.756 6.15343V9.99343H141.664ZM139.576 10.0654C139.104 10.0654 138.688 9.98543 138.328 9.82543C137.976 9.66543 137.704 9.44543 137.512 9.16543C137.32 8.87743 137.224 8.55343 137.224 8.19343C137.224 7.84943 137.304 7.53743 137.464 7.25743C137.632 6.97743 137.9 6.75343 138.268 6.58543C138.644 6.41743 139.148 6.33343 139.78 6.33343H141.796V7.16143H139.828C139.252 7.16143 138.864 7.25742 138.664 7.44942C138.464 7.64142 138.364 7.87342 138.364 8.14542C138.364 8.45742 138.488 8.70943 138.736 8.90143C138.984 9.08543 139.328 9.17743 139.768 9.17743C140.2 9.17743 140.576 9.08143 140.896 8.88943C141.224 8.69743 141.46 8.41743 141.604 8.04943L141.832 8.84142C141.68 9.21742 141.412 9.51743 141.028 9.74143C140.644 9.95743 140.16 10.0654 139.576 10.0654Z" fill="#646464"/>
<path d="M133.345 9.99343V3.63342H134.449V5.36143L134.341 4.92943C134.517 4.48943 134.813 4.15342 135.229 3.92142C135.645 3.68942 136.157 3.57343 136.765 3.57343V4.68942C136.717 4.68143 136.669 4.67743 136.621 4.67743C136.581 4.67743 136.541 4.67743 136.501 4.67743C135.885 4.67743 135.397 4.86143 135.037 5.22943C134.677 5.59743 134.497 6.12943 134.497 6.82543V9.99343H133.345Z" fill="#646464"/>
<path d="M123.599 9.99345V1.59344H127.139C128.035 1.59344 128.823 1.76944 129.503 2.12145C130.191 2.47344 130.723 2.96544 131.099 3.59744C131.483 4.22944 131.675 4.96145 131.675 5.79345C131.675 6.62545 131.483 7.35745 131.099 7.98945C130.723 8.62145 130.191 9.11345 129.503 9.46545C128.823 9.81745 128.035 9.99345 127.139 9.99345H123.599ZM124.799 8.94945H127.067C127.763 8.94945 128.363 8.81744 128.867 8.55344C129.379 8.28944 129.775 7.92144 130.055 7.44944C130.335 6.96944 130.475 6.41745 130.475 5.79345C130.475 5.16145 130.335 4.60945 130.055 4.13744C129.775 3.66544 129.379 3.29744 128.867 3.03344C128.363 2.76944 127.763 2.63744 127.067 2.63744H124.799V8.94945Z" fill="#646464"/>
<path d="M221.929 27.1009C221.249 27.1009 220.649 26.9609 220.129 26.6809C219.617 26.4009 219.217 26.0169 218.929 25.5289C218.649 25.0409 218.509 24.4809 218.509 23.8489C218.509 23.2169 218.645 22.6569 218.917 22.1689C219.197 21.6809 219.577 21.3009 220.057 21.0289C220.545 20.7489 221.093 20.6089 221.701 20.6089C222.317 20.6089 222.861 20.7449 223.333 21.0169C223.805 21.2889 224.173 21.6729 224.437 22.1689C224.709 22.6569 224.845 23.2289 224.845 23.8849C224.845 23.9329 224.841 23.9889 224.833 24.0529C224.833 24.1169 224.829 24.1769 224.821 24.2329H219.409V23.4049H224.221L223.753 23.6929C223.761 23.2849 223.677 22.9209 223.501 22.6009C223.325 22.2809 223.081 22.0329 222.769 21.8569C222.465 21.6729 222.109 21.5809 221.701 21.5809C221.301 21.5809 220.945 21.6729 220.633 21.8569C220.321 22.0329 220.077 22.2849 219.901 22.6129C219.725 22.9329 219.637 23.3009 219.637 23.7169V23.9089C219.637 24.3329 219.733 24.7129 219.925 25.0489C220.125 25.3769 220.401 25.6329 220.753 25.8169C221.105 26.0009 221.509 26.0929 221.965 26.0929C222.341 26.0929 222.681 26.0289 222.985 25.9009C223.297 25.7729 223.569 25.5809 223.801 25.3249L224.437 26.0689C224.149 26.4049 223.789 26.6609 223.357 26.8369C222.933 27.0129 222.457 27.1009 221.929 27.1009Z" fill="#FF69A5"/>
<path d="M215.745 27.0289V18.1249H216.897V27.0289H215.745Z" fill="#FF69A5"/>
<path d="M208.331 27.0289V20.1049C208.331 19.4809 208.511 18.9849 208.871 18.6169C209.239 18.2409 209.759 18.0529 210.431 18.0529C210.679 18.0529 210.915 18.0849 211.139 18.1489C211.371 18.2049 211.567 18.2969 211.727 18.4249L211.379 19.3009C211.259 19.2049 211.123 19.1329 210.971 19.0849C210.819 19.0289 210.659 19.0009 210.491 19.0009C210.155 19.0009 209.899 19.0969 209.723 19.2889C209.547 19.4729 209.459 19.7489 209.459 20.1169V20.9689L209.483 21.4969V27.0289H208.331ZM207.251 21.6169V20.6689H211.307V21.6169H207.251ZM212.399 27.0289V20.6689H213.551V27.0289H212.399ZM212.975 19.4449C212.751 19.4449 212.563 19.3729 212.411 19.2289C212.267 19.0849 212.195 18.9089 212.195 18.7009C212.195 18.4849 212.267 18.3049 212.411 18.1609C212.563 18.0169 212.751 17.9449 212.975 17.9449C213.199 17.9449 213.383 18.0169 213.527 18.1609C213.679 18.2969 213.755 18.4689 213.755 18.6769C213.755 18.8929 213.683 19.0769 213.539 19.2289C213.395 19.3729 213.207 19.4449 212.975 19.4449Z" fill="#FF69A5"/>
<path d="M202.156 27.1009C201.516 27.1009 201.02 26.9289 200.668 26.5849C200.316 26.2409 200.14 25.7489 200.14 25.1089V19.2769H201.292V25.0609C201.292 25.4049 201.376 25.6689 201.544 25.8529C201.72 26.0369 201.968 26.1289 202.288 26.1289C202.648 26.1289 202.948 26.0289 203.188 25.8289L203.548 26.6569C203.372 26.8089 203.16 26.9209 202.912 26.9929C202.672 27.0649 202.42 27.1009 202.156 27.1009ZM199.06 21.6169V20.6689H203.116V21.6169H199.06Z" fill="#FF69A5"/>
<path d="M195.806 27.1009C195.158 27.1009 194.578 26.9609 194.066 26.6809C193.562 26.4009 193.166 26.0169 192.878 25.5289C192.59 25.0409 192.446 24.4809 192.446 23.8489C192.446 23.2169 192.59 22.6569 192.878 22.1689C193.166 21.6809 193.562 21.3009 194.066 21.0289C194.578 20.7489 195.158 20.6089 195.806 20.6089C196.382 20.6089 196.894 20.7249 197.342 20.9569C197.798 21.1809 198.15 21.5169 198.398 21.9649L197.522 22.5289C197.314 22.2169 197.058 21.9889 196.754 21.8449C196.458 21.6929 196.138 21.6169 195.794 21.6169C195.378 21.6169 195.006 21.7089 194.678 21.8929C194.35 22.0769 194.09 22.3369 193.898 22.6729C193.706 23.0009 193.61 23.3929 193.61 23.8489C193.61 24.3049 193.706 24.7009 193.898 25.0369C194.09 25.3729 194.35 25.6329 194.678 25.8169C195.006 26.0009 195.378 26.0929 195.794 26.0929C196.138 26.0929 196.458 26.0209 196.754 25.8769C197.058 25.7249 197.314 25.4929 197.522 25.1809L198.398 25.7329C198.15 26.1729 197.798 26.5129 197.342 26.7529C196.894 26.9849 196.382 27.1009 195.806 27.1009Z" fill="#FF69A5"/>
<path d="M188.518 27.1009C187.838 27.1009 187.238 26.9609 186.718 26.6809C186.206 26.4009 185.806 26.0169 185.518 25.5289C185.238 25.0409 185.098 24.4809 185.098 23.8489C185.098 23.2169 185.234 22.6569 185.506 22.1689C185.786 21.6809 186.166 21.3009 186.646 21.0289C187.134 20.7489 187.682 20.6089 188.29 20.6089C188.906 20.6089 189.45 20.7449 189.922 21.0169C190.394 21.2889 190.762 21.6729 191.026 22.1689C191.298 22.6569 191.434 23.2289 191.434 23.8849C191.434 23.9329 191.43 23.9889 191.422 24.0529C191.422 24.1169 191.418 24.1769 191.41 24.2329H185.998V23.4049H190.81L190.342 23.6929C190.35 23.2849 190.266 22.9209 190.09 22.6009C189.914 22.2809 189.67 22.0329 189.358 21.8569C189.054 21.6729 188.698 21.5809 188.29 21.5809C187.89 21.5809 187.534 21.6729 187.222 21.8569C186.91 22.0329 186.666 22.2849 186.49 22.6129C186.314 22.9329 186.226 23.3009 186.226 23.7169V23.9089C186.226 24.3329 186.322 24.7129 186.514 25.0489C186.714 25.3769 186.99 25.6329 187.342 25.8169C187.694 26.0009 188.098 26.0929 188.554 26.0929C188.93 26.0929 189.27 26.0289 189.574 25.9009C189.886 25.7729 190.158 25.5809 190.39 25.3249L191.026 26.0689C190.738 26.4049 190.378 26.6609 189.946 26.8369C189.522 27.0129 189.046 27.1009 188.518 27.1009Z" fill="#FF69A5"/>
<path d="M182.335 27.0289V18.1249H183.487V27.0289H182.335Z" fill="#FF69A5"/>
<path d="M177.819 27.1009C177.139 27.1009 176.539 26.9609 176.019 26.6809C175.507 26.4009 175.107 26.0169 174.819 25.5289C174.539 25.0409 174.399 24.4809 174.399 23.8489C174.399 23.2169 174.535 22.6569 174.807 22.1689C175.087 21.6809 175.467 21.3009 175.947 21.0289C176.435 20.7489 176.983 20.6089 177.591 20.6089C178.207 20.6089 178.751 20.7449 179.223 21.0169C179.695 21.2889 180.063 21.6729 180.327 22.1689C180.599 22.6569 180.735 23.2289 180.735 23.8849C180.735 23.9329 180.731 23.9889 180.723 24.0529C180.723 24.1169 180.719 24.1769 180.711 24.2329H175.299V23.4049H180.111L179.643 23.6929C179.651 23.2849 179.567 22.9209 179.391 22.6009C179.215 22.2809 178.971 22.0329 178.659 21.8569C178.355 21.6729 177.999 21.5809 177.591 21.5809C177.191 21.5809 176.835 21.6729 176.523 21.8569C176.211 22.0329 175.967 22.2849 175.791 22.6129C175.615 22.9329 175.527 23.3009 175.527 23.7169V23.9089C175.527 24.3329 175.623 24.7129 175.815 25.0489C176.015 25.3769 176.291 25.6329 176.643 25.8169C176.995 26.0009 177.399 26.0929 177.855 26.0929C178.231 26.0929 178.571 26.0289 178.875 25.9009C179.187 25.7729 179.459 25.5809 179.691 25.3249L180.327 26.0689C180.039 26.4049 179.679 26.6609 179.247 26.8369C178.823 27.0129 178.347 27.1009 177.819 27.1009Z" fill="#FF69A5"/>
<path d="M170.8 27.1009C170.272 27.1009 169.768 27.0289 169.288 26.8849C168.816 26.7409 168.444 26.5649 168.172 26.3569L168.652 25.4449C168.924 25.6289 169.26 25.7849 169.66 25.9129C170.06 26.0409 170.468 26.1049 170.884 26.1049C171.42 26.1049 171.804 26.0289 172.036 25.8769C172.276 25.7249 172.396 25.5129 172.396 25.2409C172.396 25.0409 172.324 24.8849 172.18 24.7729C172.036 24.6609 171.844 24.5769 171.604 24.5209C171.372 24.4649 171.112 24.4169 170.824 24.3769C170.536 24.3289 170.248 24.2729 169.96 24.2089C169.672 24.1369 169.408 24.0409 169.168 23.9209C168.928 23.7929 168.736 23.6209 168.592 23.4049C168.448 23.1809 168.376 22.8849 168.376 22.5169C168.376 22.1329 168.484 21.7969 168.7 21.5089C168.916 21.2209 169.22 21.0009 169.612 20.8489C170.012 20.6889 170.484 20.6089 171.028 20.6089C171.444 20.6089 171.864 20.6609 172.288 20.7649C172.72 20.8609 173.072 21.0009 173.344 21.1849L172.852 22.0969C172.564 21.9049 172.264 21.7729 171.952 21.7009C171.64 21.6289 171.328 21.5929 171.016 21.5929C170.512 21.5929 170.136 21.6769 169.888 21.8449C169.64 22.0049 169.516 22.2129 169.516 22.4689C169.516 22.6849 169.588 22.8529 169.732 22.9729C169.884 23.0849 170.076 23.1729 170.308 23.2369C170.548 23.3009 170.812 23.3569 171.1 23.4049C171.388 23.4449 171.676 23.5009 171.964 23.5729C172.252 23.6369 172.512 23.7289 172.744 23.8489C172.984 23.9689 173.176 24.1369 173.32 24.3529C173.472 24.5689 173.548 24.8569 173.548 25.2169C173.548 25.6009 173.436 25.9329 173.212 26.2129C172.988 26.4929 172.672 26.7129 172.264 26.8729C171.856 27.0249 171.368 27.1009 170.8 27.1009Z" fill="#FF69A5"/>
<path d="M160.86 27.1009C160.22 27.1009 159.652 26.9609 159.156 26.6809C158.66 26.4009 158.268 26.0169 157.98 25.5289C157.692 25.0329 157.548 24.4729 157.548 23.8489C157.548 23.2169 157.692 22.6569 157.98 22.1689C158.268 21.6809 158.66 21.3009 159.156 21.0289C159.652 20.7489 160.22 20.6089 160.86 20.6089C161.492 20.6089 162.056 20.7489 162.552 21.0289C163.056 21.3009 163.448 21.6809 163.728 22.1689C164.016 22.6489 164.16 23.2089 164.16 23.8489C164.16 24.4809 164.016 25.0409 163.728 25.5289C163.448 26.0169 163.056 26.4009 162.552 26.6809C162.056 26.9609 161.492 27.1009 160.86 27.1009ZM160.86 26.0929C161.268 26.0929 161.632 26.0009 161.952 25.8169C162.28 25.6329 162.536 25.3729 162.72 25.0369C162.904 24.6929 162.996 24.2969 162.996 23.8489C162.996 23.3929 162.904 23.0009 162.72 22.6729C162.536 22.3369 162.28 22.0769 161.952 21.8929C161.632 21.7089 161.268 21.6169 160.86 21.6169C160.452 21.6169 160.088 21.7089 159.768 21.8929C159.448 22.0769 159.192 22.3369 159 22.6729C158.808 23.0009 158.712 23.3929 158.712 23.8489C158.712 24.2969 158.808 24.6929 159 25.0369C159.192 25.3729 159.448 25.6329 159.768 25.8169C160.088 26.0009 160.452 26.0929 160.86 26.0929Z" fill="#646464"/>
<path d="M155.562 27.1009C154.922 27.1009 154.426 26.9289 154.074 26.5849C153.722 26.2409 153.546 25.7489 153.546 25.1089V19.2769H154.698V25.0609C154.698 25.4049 154.782 25.6689 154.95 25.8529C155.126 26.0369 155.374 26.1289 155.694 26.1289C156.054 26.1289 156.354 26.0289 156.594 25.8289L156.954 26.6569C156.778 26.8089 156.566 26.9209 156.318 26.9929C156.078 27.0649 155.826 27.1009 155.562 27.1009ZM152.466 21.6169V20.6689H156.522V21.6169H152.466Z" fill="#646464"/>
<path d="M145.64 27.1009C144.96 27.1009 144.36 26.9609 143.84 26.6809C143.328 26.4009 142.928 26.0169 142.64 25.5289C142.36 25.0409 142.22 24.4809 142.22 23.8489C142.22 23.2169 142.356 22.6569 142.628 22.1689C142.908 21.6809 143.288 21.3009 143.768 21.0289C144.256 20.7489 144.804 20.6089 145.412 20.6089C146.028 20.6089 146.572 20.7449 147.044 21.0169C147.516 21.2889 147.884 21.6729 148.148 22.1689C148.42 22.6569 148.556 23.2289 148.556 23.8849C148.556 23.9329 148.552 23.9889 148.544 24.0529C148.544 24.1169 148.54 24.1769 148.532 24.2329H143.12V23.4049H147.932L147.464 23.6929C147.472 23.2849 147.388 22.9209 147.212 22.6009C147.036 22.2809 146.792 22.0329 146.48 21.8569C146.176 21.6729 145.82 21.5809 145.412 21.5809C145.012 21.5809 144.656 21.6729 144.344 21.8569C144.032 22.0329 143.788 22.2849 143.612 22.6129C143.436 22.9329 143.348 23.3009 143.348 23.7169V23.9089C143.348 24.3329 143.444 24.7129 143.636 25.0489C143.836 25.3769 144.112 25.6329 144.464 25.8169C144.816 26.0009 145.22 26.0929 145.676 26.0929C146.052 26.0929 146.392 26.0289 146.696 25.9009C147.008 25.7729 147.28 25.5809 147.512 25.3249L148.148 26.0689C147.86 26.4049 147.5 26.6609 147.068 26.8369C146.644 27.0129 146.168 27.1009 145.64 27.1009Z" fill="#646464"/>
<path d="M138.62 27.1009C138.092 27.1009 137.588 27.0289 137.108 26.8849C136.636 26.7409 136.264 26.5649 135.992 26.3569L136.472 25.4449C136.744 25.6289 137.08 25.7849 137.48 25.9129C137.88 26.0409 138.288 26.1049 138.704 26.1049C139.24 26.1049 139.624 26.0289 139.856 25.8769C140.096 25.7249 140.216 25.5129 140.216 25.2409C140.216 25.0409 140.144 24.8849 140 24.7729C139.856 24.6609 139.664 24.5769 139.424 24.5209C139.192 24.4649 138.932 24.4169 138.644 24.3769C138.356 24.3289 138.068 24.2729 137.78 24.2089C137.492 24.1369 137.228 24.0409 136.988 23.9209C136.748 23.7929 136.556 23.6209 136.412 23.4049C136.268 23.1809 136.196 22.8849 136.196 22.5169C136.196 22.1329 136.304 21.7969 136.52 21.5089C136.736 21.2209 137.04 21.0009 137.432 20.8489C137.832 20.6889 138.304 20.6089 138.848 20.6089C139.264 20.6089 139.684 20.6609 140.108 20.7649C140.54 20.8609 140.892 21.0009 141.164 21.1849L140.672 22.0969C140.384 21.9049 140.084 21.7729 139.772 21.7009C139.46 21.6289 139.148 21.5929 138.836 21.5929C138.332 21.5929 137.956 21.6769 137.708 21.8449C137.46 22.0049 137.336 22.2129 137.336 22.4689C137.336 22.6849 137.408 22.8529 137.552 22.9729C137.704 23.0849 137.896 23.1729 138.128 23.2369C138.368 23.3009 138.632 23.3569 138.92 23.4049C139.208 23.4449 139.496 23.5009 139.784 23.5729C140.072 23.6369 140.332 23.7289 140.564 23.8489C140.804 23.9689 140.996 24.1369 141.14 24.3529C141.292 24.5689 141.368 24.8569 141.368 25.2169C141.368 25.6009 141.256 25.9329 141.032 26.2129C140.808 26.4929 140.492 26.7129 140.084 26.8729C139.676 27.0249 139.188 27.1009 138.62 27.1009Z" fill="#646464"/>
<path d="M127.429 27.0289L125.065 20.6689H126.157L128.257 26.4289H127.741L129.925 20.6689H130.897L133.033 26.4289H132.529L134.677 20.6689H135.709L133.333 27.0289H132.229L130.225 21.7729H130.561L128.533 27.0289H127.429Z" fill="#646464"/>
<path d="M121.368 27.1009C120.728 27.1009 120.16 26.9609 119.664 26.6809C119.168 26.4009 118.776 26.0169 118.488 25.5289C118.2 25.0329 118.056 24.4729 118.056 23.8489C118.056 23.2169 118.2 22.6569 118.488 22.1689C118.776 21.6809 119.168 21.3009 119.664 21.0289C120.16 20.7489 120.728 20.6089 121.368 20.6089C122 20.6089 122.564 20.7489 123.06 21.0289C123.564 21.3009 123.956 21.6809 124.236 22.1689C124.524 22.6489 124.668 23.2089 124.668 23.8489C124.668 24.4809 124.524 25.0409 124.236 25.5289C123.956 26.0169 123.564 26.4009 123.06 26.6809C122.564 26.9609 122 27.1009 121.368 27.1009ZM121.368 26.0929C121.776 26.0929 122.14 26.0009 122.46 25.8169C122.788 25.6329 123.044 25.3729 123.228 25.0369C123.412 24.6929 123.504 24.2969 123.504 23.8489C123.504 23.3929 123.412 23.0009 123.228 22.6729C123.044 22.3369 122.788 22.0769 122.46 21.8929C122.14 21.7089 121.776 21.6169 121.368 21.6169C120.96 21.6169 120.596 21.7089 120.276 21.8929C119.956 22.0769 119.7 22.3369 119.508 22.6729C119.316 23.0009 119.22 23.3929 119.22 23.8489C119.22 24.2969 119.316 24.6929 119.508 25.0369C119.7 25.3729 119.956 25.6329 120.276 25.8169C120.596 26.0009 120.96 26.0929 121.368 26.0929Z" fill="#646464"/>
<path d="M113.862 27.0289V20.6689H114.966V22.3969L114.858 21.9649C115.034 21.5249 115.33 21.1889 115.746 20.9569C116.162 20.7249 116.674 20.6089 117.282 20.6089V21.7249C117.234 21.7169 117.186 21.7129 117.138 21.7129C117.098 21.7129 117.058 21.7129 117.018 21.7129C116.402 21.7129 115.914 21.8969 115.554 22.2649C115.194 22.6329 115.014 23.1649 115.014 23.8609V27.0289H113.862Z" fill="#646464"/>
<path d="M109.055 27.1009C108.511 27.1009 108.019 26.9809 107.579 26.7409C107.147 26.4929 106.803 26.1289 106.547 25.6489C106.299 25.1689 106.175 24.5689 106.175 23.8489C106.175 23.1289 106.303 22.5289 106.559 22.0489C106.823 21.5689 107.171 21.2089 107.603 20.9689C108.043 20.7289 108.527 20.6089 109.055 20.6089C109.679 20.6089 110.231 20.7449 110.711 21.0169C111.191 21.2889 111.571 21.6689 111.851 22.1569C112.131 22.6369 112.271 23.2009 112.271 23.8489C112.271 24.4969 112.131 25.0649 111.851 25.5529C111.571 26.0409 111.191 26.4209 110.711 26.6929C110.231 26.9649 109.679 27.1009 109.055 27.1009ZM105.683 27.0289V18.1249H106.835V22.3609L106.715 23.8369L106.787 25.3129V27.0289H105.683ZM108.959 26.0929C109.367 26.0929 109.731 26.0009 110.051 25.8169C110.379 25.6329 110.635 25.3729 110.819 25.0369C111.011 24.6929 111.107 24.2969 111.107 23.8489C111.107 23.3929 111.011 23.0009 110.819 22.6729C110.635 22.3369 110.379 22.0769 110.051 21.8929C109.731 21.7089 109.367 21.6169 108.959 21.6169C108.559 21.6169 108.195 21.7089 107.867 21.8929C107.547 22.0769 107.291 22.3369 107.099 22.6729C106.915 23.0009 106.823 23.3929 106.823 23.8489C106.823 24.2969 106.915 24.6929 107.099 25.0369C107.291 25.3729 107.547 25.6329 107.867 25.8169C108.195 26.0009 108.559 26.0929 108.959 26.0929Z" fill="#646464"/>
<path d="M97.5381 27.0289V20.6689H98.6421V22.3969L98.5341 21.9649C98.7101 21.5249 99.0061 21.1889 99.4221 20.9569C99.8381 20.7249 100.35 20.6089 100.958 20.6089V21.7249C100.91 21.7169 100.862 21.7129 100.814 21.7129C100.774 21.7129 100.734 21.7129 100.694 21.7129C100.078 21.7129 99.5901 21.8969 99.2301 22.2649C98.8701 22.6329 98.6901 23.1649 98.6901 23.8609V27.0289H97.5381Z" fill="#646464"/>
<path d="M92.6449 27.1009C92.0049 27.1009 91.4369 26.9609 90.9409 26.6809C90.4449 26.4009 90.0529 26.0169 89.7649 25.5289C89.4769 25.0329 89.3329 24.4729 89.3329 23.8489C89.3329 23.2169 89.4769 22.6569 89.7649 22.1689C90.0529 21.6809 90.4449 21.3009 90.9409 21.0289C91.4369 20.7489 92.0049 20.6089 92.6449 20.6089C93.2769 20.6089 93.8409 20.7489 94.3369 21.0289C94.8409 21.3009 95.2329 21.6809 95.5129 22.1689C95.8009 22.6489 95.9449 23.2089 95.9449 23.8489C95.9449 24.4809 95.8009 25.0409 95.5129 25.5289C95.2329 26.0169 94.8409 26.4009 94.3369 26.6809C93.8409 26.9609 93.2769 27.1009 92.6449 27.1009ZM92.6449 26.0929C93.0529 26.0929 93.4169 26.0009 93.7369 25.8169C94.0649 25.6329 94.3209 25.3729 94.5049 25.0369C94.6889 24.6929 94.7809 24.2969 94.7809 23.8489C94.7809 23.3929 94.6889 23.0009 94.5049 22.6729C94.3209 22.3369 94.0649 22.0769 93.7369 21.8929C93.4169 21.7089 93.0529 21.6169 92.6449 21.6169C92.2369 21.6169 91.8729 21.7089 91.5529 21.8929C91.2329 22.0769 90.9769 22.3369 90.7849 22.6729C90.5929 23.0009 90.4969 23.3929 90.4969 23.8489C90.4969 24.2969 90.5929 24.6929 90.7849 25.0369C90.9769 25.3729 91.2329 25.6329 91.5529 25.8169C91.8729 26.0009 92.2369 26.0929 92.6449 26.0929Z" fill="#646464"/>
</svg>
