<svg width="27" height="24" viewBox="0 0 27 24" fill="none" xmlns="http://www.w3.org/2000/svg">
<path d="M24.1665 0.333496H2.83317C1.35317 0.333496 0.179837 1.52016 0.179837 3.00016L0.166504 19.0002C0.166504 20.4802 1.35317 21.6668 2.83317 21.6668H8.1665C8.89984 21.6668 9.49984 21.0668 9.49984 20.3335C9.49984 19.6002 8.89984 19.0002 8.1665 19.0002H2.83317V11.0002H26.8332V3.00016C26.8332 1.5335 25.6332 0.333496 24.1665 0.333496ZM24.1665 5.66683H2.83317V3.00016H24.1665V5.66683ZM17.4065 20.5602L14.5798 17.7335C14.0598 17.2135 13.2198 17.2135 12.6998 17.7335C12.1798 18.2535 12.1798 19.0935 12.6998 19.6135L16.4732 23.3868C16.9932 23.9068 17.8332 23.9068 18.3532 23.3868L25.8998 15.8402C26.4198 15.3202 26.4198 14.4802 25.8998 13.9602C25.3798 13.4402 24.5398 13.4402 24.0198 13.9602L17.4065 20.5602Z" fill="white"/>
</svg>
