<svg width="328" height="371" viewBox="0 0 328 371" fill="none" xmlns="http://www.w3.org/2000/svg">
<path opacity="0.43" d="M263.292 370.958C298.531 370.958 327.098 367.947 327.098 364.231C327.098 360.516 298.531 357.504 263.292 357.504C228.054 357.504 199.487 360.516 199.487 364.231C199.487 367.947 228.054 370.958 263.292 370.958Z" fill="#C1CACD"/>
<path opacity="0.43" d="M64.7913 333.399C100.03 333.399 128.596 330.387 128.596 326.672C128.596 322.956 100.03 319.945 64.7913 319.945C29.5527 319.945 0.98616 322.956 0.98616 326.672C0.98616 330.387 29.5527 333.399 64.7913 333.399Z" fill="#C1CACD"/>
<g style="mix-blend-mode:multiply" opacity="0.34">
<path d="M184.318 313.427C184.318 313.427 162.264 301.367 166.281 288.031C168.703 279.987 180.672 283.556 181.532 291.594C182.392 299.631 187.504 315.169 187.504 315.169L184.318 313.427Z" fill="#CDD6D9"/>
</g>
<g style="mix-blend-mode:multiply" opacity="0.34">
<path d="M194.458 323.061C194.458 323.061 216.211 315.546 214.58 302.845C213.597 295.177 202.198 296.571 200.244 303.723C198.29 310.875 191.301 324.127 191.301 324.127L194.458 323.061Z" fill="#CDD6D9"/>
</g>
<g style="mix-blend-mode:multiply" opacity="0.34">
<path d="M192.931 288.582C192.931 288.582 215.908 288.185 218.192 275.609C219.568 268.025 206.263 265.926 202.211 272.124C198.16 278.321 189.609 288.652 189.609 288.652L192.931 288.582Z" fill="#CDD6D9"/>
</g>
<g style="mix-blend-mode:multiply" opacity="0.34">
<path d="M238.568 205.774C238.334 206.339 263.052 212.278 268.053 203.543C273.054 194.809 264.166 184.422 248.653 194.572C248.653 194.572 241.045 199.835 238.568 205.774Z" fill="#CDD6D9"/>
</g>
<g style="mix-blend-mode:multiply" opacity="0.34">
<path d="M212.881 228.032C212.881 228.032 227.39 236.467 238.699 228.729C250.009 220.991 232.604 208.248 214.904 225.564L212.881 228.032Z" fill="#CDD6D9"/>
</g>
<g style="mix-blend-mode:multiply" opacity="0.34">
<path d="M197.499 256.871C197.499 256.871 212.007 265.299 223.324 257.568C234.64 249.837 217.229 237.094 199.522 254.403L197.499 256.871Z" fill="#CDD6D9"/>
</g>
<g style="mix-blend-mode:multiply" opacity="0.34">
<path d="M204.2 239.395C204.2 239.395 191.383 228.506 194.624 215.08C197.864 201.654 215.695 213.811 205.775 236.62L204.2 239.395Z" fill="#CDD6D9"/>
</g>
<g style="mix-blend-mode:multiply" opacity="0.34">
<path d="M228.827 210.368C228.827 210.368 216.445 187.865 225.876 177.862C235.053 168.103 247.8 189.859 231.194 208.256L228.827 210.368Z" fill="#CDD6D9"/>
</g>
<g style="mix-blend-mode:multiply" opacity="0.34">
<path d="M185.742 273.643C185.742 273.643 168.166 259.123 172.981 247.3C175.884 240.169 187.49 242.985 187.593 250.402C187.696 257.819 190.345 278.14 190.345 278.14L185.742 273.643Z" fill="#CDD6D9"/>
</g>
<g opacity="0.9">
<g style="mix-blend-mode:multiply" opacity="0.34">
<path d="M153.376 264.281C153.376 264.281 174.66 244.665 166.549 230.925C161.651 222.637 149.289 229.97 150.521 239.172C151.752 248.374 150.294 267.119 150.294 267.119L153.376 264.281Z" fill="#CDD6D9"/>
</g>
<g style="mix-blend-mode:multiply">
<path d="M138.798 219.04C138.798 219.04 156.554 199.249 147.968 187.419C142.788 180.288 132.146 188.075 134.038 196.363C135.93 204.652 136.232 221.898 136.232 221.898L138.798 219.04Z" fill="#D3E6EA"/>
</g>
<g style="mix-blend-mode:multiply" opacity="0.34">
<path d="M144.701 277.868C144.701 277.868 118.401 275.581 116.764 260.991C115.774 252.194 128.817 250.535 132.979 257.959C137.14 265.383 148.498 278.175 148.498 278.175L144.701 277.868Z" fill="#CDD6D9"/>
</g>
<g style="mix-blend-mode:multiply" opacity="0.34">
<path d="M137.003 239.012C137.003 239.012 111.281 245.007 105.31 231.629C101.705 223.564 115.959 217.499 122.164 223.264C128.369 229.029 140.738 238.154 140.738 238.154L137.003 239.012Z" fill="#CDD6D9"/>
</g>
<g style="mix-blend-mode:multiply" opacity="0.34">
<path d="M63.5462 159.514C63.9589 160.072 42.0003 174.154 34.0479 165.788C26.0955 157.423 36.7239 145.28 49.2717 149.86C49.2717 149.874 59.1572 153.582 63.5462 159.514Z" fill="#CDD6D9"/>
</g>
<g style="mix-blend-mode:multiply" opacity="0.34">
<path d="M98.2933 177.144C98.2933 177.144 84.4247 190.605 69.71 185.175C54.9952 179.744 70.9138 160.644 95.3696 174.983L98.2933 177.144Z" fill="#CDD6D9"/>
</g>
<g style="mix-blend-mode:multiply" opacity="0.34">
<path d="M123.251 204.951C123.251 204.951 109.383 218.412 94.6679 212.975C79.9532 207.538 95.8718 188.451 120.328 202.79L123.251 204.951Z" fill="#CDD6D9"/>
</g>
<g style="mix-blend-mode:multiply" opacity="0.34">
<path d="M111.013 187.35C111.013 187.35 122.329 171.63 115.058 157.57C107.787 143.509 91.2283 162.059 108.509 184.701L111.013 187.35Z" fill="#CDD6D9"/>
</g>
<g style="mix-blend-mode:multiply" opacity="0.34">
<path d="M75.6468 161.905C75.6468 161.905 81.4047 143.342 70.0746 132.383C58.7444 121.425 48.914 144.38 72.4411 160.205L75.6468 161.905Z" fill="#CDD6D9"/>
</g>
</g>
<path d="M238.383 121.509C238.527 121.313 243.611 121.509 243.611 121.509C243.611 121.509 237.743 127.545 235.438 129.546C230.43 133.903 226.564 131.108 226.564 131.108C226.564 131.108 220.999 128.068 216.754 120.818C214.119 116.322 212.221 115.653 212.221 115.653C212.221 115.653 209.531 117.214 207.894 115.751C206.256 114.287 206.353 112.404 206.855 111.868C207.357 111.331 211.56 113.011 211.505 110.92C211.45 108.828 211.106 107.127 211.994 107.706C212.881 108.285 212.881 112.314 212.881 112.314C212.881 112.314 226.089 123.049 226.543 123.349C231.593 126.632 238.383 121.509 238.383 121.509Z" fill="white" stroke="#002A4E" stroke-width="1.49" stroke-linecap="round" stroke-linejoin="round"/>
<path d="M144.708 178.322C127.356 178.322 110.394 173.108 95.9668 163.34C81.5395 153.571 70.2948 139.687 63.6546 123.442C57.0144 107.198 55.2771 89.3225 58.6622 72.0774C62.0473 54.8323 70.4029 38.9917 82.6723 26.5587C94.9418 14.1257 110.574 5.65865 127.592 2.22839C144.61 -1.20187 162.25 0.558661 178.281 7.28736C194.312 14.0161 208.014 25.4107 217.654 40.0304C227.294 54.6501 232.439 71.8382 232.439 89.4212C232.413 112.991 223.162 135.589 206.715 152.255C190.268 168.922 167.968 178.296 144.708 178.322ZM144.708 0.945414C127.439 0.945414 110.558 6.13442 96.2 15.8563C81.8416 25.5781 70.6507 39.3961 64.0423 55.5629C57.4339 71.7298 55.7048 89.5193 59.0738 106.682C62.4427 123.845 70.7583 139.609 82.9691 151.983C95.1798 164.356 110.737 172.783 127.674 176.197C144.611 179.611 162.166 177.859 178.12 171.162C194.074 164.466 207.711 153.125 217.305 138.576C226.899 124.026 232.019 106.92 232.019 89.4212C231.994 65.9639 222.787 43.4747 206.418 26.8879C190.05 10.3011 167.856 0.971246 144.708 0.945414Z" fill="white" stroke="#002A4E" stroke-width="1.49" stroke-linecap="round" stroke-linejoin="round"/>
<path opacity="0.54" d="M230.244 94.496C230.241 78.8914 226.083 63.5766 218.21 50.1655C210.337 36.7543 199.041 25.7432 185.51 18.2923C171.979 10.8414 156.716 7.22662 141.328 7.82879C125.94 8.43096 110.998 13.2278 98.0746 21.7139C85.1514 30.1999 74.7262 42.0611 67.8974 56.0476C61.0687 70.0341 58.0892 85.6281 59.2729 101.187C60.4566 116.745 65.7597 131.692 74.6233 144.453C83.487 157.213 95.5831 167.315 109.637 173.693H109.534L109.885 173.805H109.933C113.905 175.558 117.101 178.732 118.91 182.721C123.678 193.442 122.845 205.934 123.1 206.701H170.23C170.23 186.771 175.203 175.82 177.646 174.586C193.23 167.98 206.538 156.852 215.897 142.601C225.256 128.351 230.248 111.614 230.244 94.496Z" fill="white" stroke="#002A4E" stroke-width="1.49" stroke-linecap="round" stroke-linejoin="round"/>
<path d="M124.613 199.807H169.06C169.462 199.807 169.847 199.968 170.13 200.256C170.414 200.543 170.574 200.934 170.574 201.34V228.283C170.574 230.117 169.855 231.876 168.575 233.173C167.295 234.47 165.559 235.198 163.749 235.198H129.924C128.114 235.198 126.378 234.47 125.099 233.173C123.819 231.876 123.1 230.117 123.1 228.283V201.34C123.1 200.934 123.259 200.543 123.543 200.256C123.827 199.968 124.212 199.807 124.613 199.807Z" fill="white" stroke="#002A4E" stroke-width="1.49" stroke-linecap="round" stroke-linejoin="round"/>
<path d="M136.797 200.148L122.887 106.131C113.455 104.855 104.017 102.074 99.566 96.3015C95.9612 91.624 94.7505 85.2735 96.5391 80.1219C98.1007 75.5629 101.843 72.3353 107.078 71.0596C108.416 70.6737 109.819 70.5773 111.196 70.7767C112.574 70.9761 113.894 71.4667 115.072 72.2168C120.004 75.4234 121.415 82.5478 121.47 82.8475V82.8894L124.641 104.283C132.581 105.131 140.578 105.304 148.546 104.799H148.588C148.746 104.799 155.742 104.513 163.977 103.363C164.19 101.188 164.355 99.564 164.465 98.6368C164.685 96.7825 164.83 94.8098 164.981 92.7185C165.359 87.4763 165.758 82.0668 167.402 77.8215C169.384 72.7257 172.816 70.251 177.9 70.251C180.789 70.2589 183.618 71.09 186.063 72.6493C188.508 74.2086 190.471 76.4333 191.727 79.0693C194.52 84.5903 194.293 91.0106 191.156 95.4232C187.366 100.763 175.898 103.635 165.827 105.183C163.605 128.305 157.469 199.291 157.4 200.086L155.398 199.904C155.467 199.103 161.507 129.163 163.77 105.482C155.955 106.556 149.413 106.828 148.684 106.877C140.775 107.414 132.835 107.269 124.95 106.444L138.785 199.856L136.797 200.148ZM109.899 72.7257C109.108 72.733 108.321 72.8336 107.553 73.0254C101.726 74.4684 99.3802 78.0445 98.4378 80.7981C96.8968 85.3083 97.9562 90.899 101.148 95.0398C105.124 100.191 113.751 102.764 122.57 103.998L119.488 83.21C119.413 82.8336 118.078 76.5737 113.985 73.9177C112.767 73.1247 111.346 72.7103 109.899 72.7257ZM177.907 72.2726C168.496 72.2726 167.733 82.729 166.996 92.8439C166.845 94.9352 166.694 96.9568 166.474 98.8529C166.37 99.7104 166.226 101.139 166.04 103.036C175.602 101.565 186.183 98.9087 189.526 94.2033C192.23 90.4041 192.395 84.8203 189.946 79.9755C188.853 77.6771 187.145 75.7361 185.017 74.3741C182.888 73.0121 180.424 72.2839 177.907 72.2726Z" fill="#FF6D31"/>
<path d="M228.635 364.294C228.149 364.268 227.69 364.065 227.342 363.721C226.993 363.377 226.781 362.917 226.743 362.426L207.261 160.964C207.202 160.422 207.355 159.878 207.686 159.448C208.018 159.018 208.502 158.737 209.036 158.664C209.299 158.638 209.565 158.666 209.818 158.746C210.07 158.825 210.305 158.955 210.507 159.128C210.71 159.301 210.876 159.513 210.997 159.751C211.117 159.99 211.19 160.251 211.21 160.518L230.692 361.98C230.75 362.522 230.598 363.066 230.266 363.496C229.934 363.925 229.45 364.207 228.917 364.28C228.823 364.292 228.729 364.296 228.635 364.294Z" fill="#002A4E"/>
<path d="M294.517 362.161C293.582 362.161 292.275 361.464 292.075 360.425L252.258 156.28C252.138 155.735 252.231 155.165 252.517 154.688C252.803 154.211 253.26 153.865 253.792 153.722C254.056 153.67 254.327 153.672 254.589 153.729C254.851 153.785 255.1 153.895 255.32 154.051C255.539 154.207 255.726 154.407 255.867 154.638C256.009 154.868 256.104 155.126 256.145 155.395L296.512 361.61C296.739 362.774 294.29 361.073 294.517 362.161Z" fill="#002A4E"/>
<path d="M270.13 244.832H217.078C216.807 244.869 216.532 244.847 216.271 244.768C216.01 244.688 215.768 244.553 215.563 244.371C215.358 244.189 215.193 243.965 215.08 243.713C214.968 243.461 214.909 243.188 214.909 242.912C214.909 242.635 214.968 242.362 215.08 242.111C215.193 241.859 215.358 241.635 215.563 241.453C215.768 241.271 216.01 241.136 216.271 241.056C216.532 240.976 216.807 240.954 217.078 240.991H270.13C270.401 240.954 270.676 240.976 270.937 241.056C271.198 241.136 271.439 241.271 271.645 241.453C271.85 241.635 272.015 241.859 272.128 242.111C272.24 242.362 272.299 242.635 272.299 242.912C272.299 243.188 272.24 243.461 272.128 243.713C272.015 243.965 271.85 244.189 271.645 244.371C271.439 244.553 271.198 244.688 270.937 244.768C270.676 244.847 270.401 244.869 270.13 244.832Z" fill="#002A4E"/>
<path d="M259.282 215.31H213.5C213.017 215.281 212.564 215.065 212.232 214.709C211.901 214.352 211.716 213.88 211.716 213.39C211.716 212.899 211.901 212.428 212.232 212.071C212.564 211.714 213.017 211.499 213.5 211.469H259.282C259.765 211.499 260.218 211.714 260.55 212.071C260.882 212.428 261.066 212.899 261.066 213.39C261.066 213.88 260.882 214.352 260.55 214.709C260.218 215.065 259.765 215.281 259.282 215.31Z" fill="#002A4E"/>
<path d="M273.99 273.128H220.07C219.566 273.128 219.083 272.925 218.727 272.564C218.371 272.203 218.171 271.714 218.171 271.204C218.171 270.693 218.371 270.204 218.727 269.843C219.083 269.482 219.566 269.28 220.07 269.28H273.99C274.493 269.28 274.976 269.482 275.332 269.843C275.688 270.204 275.888 270.693 275.888 271.204C275.888 271.714 275.688 272.203 275.332 272.564C274.976 272.925 274.493 273.128 273.99 273.128Z" fill="#002A4E"/>
<path d="M223.062 298.836C222.804 298.852 222.545 298.814 222.302 298.725C222.058 298.636 221.835 298.497 221.647 298.317C221.458 298.137 221.308 297.92 221.205 297.679C221.103 297.438 221.05 297.178 221.05 296.916C221.05 296.654 221.103 296.394 221.205 296.153C221.308 295.912 221.458 295.695 221.647 295.515C221.835 295.335 222.058 295.196 222.302 295.107C222.545 295.018 222.804 294.98 223.062 294.995H278.578C279.082 294.995 279.565 295.198 279.921 295.559C280.277 295.92 280.477 296.409 280.477 296.919C280.477 297.43 280.277 297.919 279.921 298.28C279.565 298.641 279.082 298.843 278.578 298.843L223.062 298.836Z" fill="#002A4E"/>
<path d="M284.618 328.679H225.897C225.631 328.707 225.363 328.679 225.109 328.595C224.855 328.511 224.622 328.375 224.423 328.193C224.225 328.012 224.066 327.791 223.958 327.544C223.849 327.297 223.793 327.029 223.793 326.759C223.793 326.488 223.849 326.221 223.958 325.974C224.066 325.727 224.225 325.505 224.423 325.324C224.622 325.143 224.855 325.006 225.109 324.923C225.363 324.839 225.631 324.81 225.897 324.838H284.618C284.884 324.81 285.152 324.839 285.406 324.923C285.66 325.006 285.893 325.143 286.092 325.324C286.29 325.505 286.449 325.727 286.557 325.974C286.666 326.221 286.722 326.488 286.722 326.759C286.722 327.029 286.666 327.297 286.557 327.544C286.449 327.791 286.29 328.012 286.092 328.193C285.893 328.375 285.66 328.511 285.406 328.595C285.152 328.679 284.884 328.707 284.618 328.679Z" fill="#002A4E"/>
<path d="M234.764 120.923C233.848 120.823 233.007 120.36 232.425 119.636C231.843 118.912 231.566 117.984 231.655 117.054L232.253 111.15C232.352 110.22 232.81 109.368 233.526 108.779C234.243 108.19 235.16 107.912 236.078 108.006C236.995 108.104 237.837 108.566 238.419 109.291C239.002 110.016 239.278 110.944 239.187 111.875L238.582 117.772C238.485 118.702 238.029 119.554 237.314 120.145C236.599 120.735 235.682 121.015 234.764 120.923Z" fill="white" stroke="#002A4E" stroke-width="1.49" stroke-linecap="round" stroke-linejoin="round"/>
<path d="M268.603 241.04L256.908 245.787C256.503 245.941 255.278 245.787 255.065 245.501C254.945 245.352 254.858 245.178 254.808 244.992C254.758 244.806 254.746 244.612 254.774 244.421C254.802 244.231 254.868 244.048 254.969 243.885C255.07 243.722 255.203 243.581 255.361 243.473C256.558 242.406 258.222 240.685 258.738 240.141C258.852 240.025 258.995 239.943 259.151 239.904L266.512 237.812C266.682 237.759 266.863 237.756 267.035 237.803C267.206 237.85 267.361 237.945 267.482 238.077L269.009 239.987C269.068 240.08 269.104 240.186 269.115 240.295C269.126 240.405 269.111 240.516 269.072 240.619C269.032 240.722 268.969 240.813 268.887 240.887C268.806 240.96 268.709 241.012 268.603 241.04Z" fill="white" stroke="#002A4E" stroke-width="1.49" stroke-linecap="round" stroke-linejoin="round"/>
<path d="M229.323 244.351L216.754 244.407C216.503 244.421 216.257 244.334 216.068 244.166C215.879 243.998 215.762 243.762 215.743 243.508C215.737 243.131 215.85 242.763 216.063 242.455C216.277 242.147 216.582 241.915 216.933 241.793C218.343 241.263 220.373 240.399 221.012 240.141C221.149 240.082 221.298 240.058 221.446 240.071L228.408 240.566C228.6 240.574 228.786 240.639 228.943 240.751C229.101 240.864 229.223 241.02 229.295 241.2L230.072 243.431C230.112 243.544 230.121 243.666 230.1 243.784C230.08 243.902 230.029 244.013 229.954 244.106C229.878 244.198 229.781 244.269 229.67 244.312C229.559 244.355 229.44 244.369 229.323 244.351Z" fill="white" stroke="#002A4E" stroke-width="1.49" stroke-linecap="round" stroke-linejoin="round"/>
<path d="M232.769 108.131C233.473 106.835 234.52 105.763 235.793 105.036C237.065 104.309 238.512 103.957 239.972 104.018C245.31 104.018 247.229 109.532 247.298 113.136C247.367 116.74 250.229 118.218 250.979 119.013C251.57 119.64 250.414 121.327 250.889 122.331C251.236 122.924 251.772 123.38 252.409 123.621C253.387 124.135 254.251 124.847 254.948 125.712C256.675 127.845 259.11 131.812 256.399 134.858C252.499 139.243 249.004 139.382 249.83 141.578C250.655 143.774 252.155 144.366 249.623 146.458C247.092 148.549 242.744 149.56 242.744 149.56L243.907 140.735L244.684 136.705L233.677 136.141C233.677 136.141 230.169 131.38 232.769 130.111C233.48 129.81 234.065 129.267 234.424 128.577C234.783 127.886 234.894 127.09 234.737 126.326L239.022 114.524C239.022 114.524 231.324 111.617 232.769 108.131Z" fill="#FF6D31" stroke="#002A4E" stroke-width="1.49" stroke-linecap="round" stroke-linejoin="round"/>
<path d="M235.879 222.26C235.879 222.26 232.597 232.466 230.513 236.021C228.428 239.576 229.316 241.152 229.316 241.152C229.316 241.152 222.209 242.95 220.951 242.448C218.13 241.326 221.116 240.099 221.116 240.099C222.058 239.892 222.946 239.485 223.721 238.903C224.495 238.321 225.139 237.579 225.608 236.725C227.066 233.895 226.874 220.734 226.874 220.734L235.879 222.26Z" fill="white" stroke="#002A4E" stroke-width="1.49" stroke-linecap="round" stroke-linejoin="round"/>
<path d="M263.554 216.823C263.554 216.823 265.191 228.081 264.992 232.459C264.792 236.837 266.925 237.903 266.925 237.903C266.925 237.903 260.781 242.95 259.357 242.825C257.424 242.65 258.731 240.148 258.731 240.148C258.731 240.148 261.407 237.359 261.07 235.54C260.472 232.222 254.012 216.823 254.012 216.823H263.554Z" fill="white" stroke="#002A4E" stroke-width="1.49" stroke-linecap="round" stroke-linejoin="round"/>
<path d="M229.942 159.354L224.239 194.014C223.746 197.075 224.02 200.213 225.037 203.139C226.729 208.214 227.149 219.813 226.626 221.626C226.241 222.943 228.139 223.257 228.139 223.257L235.521 224.345C236.503 223.142 237.108 221.67 237.26 220.116C237.412 218.563 237.103 216.999 236.374 215.624C236.161 214.774 236.052 213.901 236.05 213.024C236.119 212.041 237.523 208.353 234.97 199.347C233.56 194.369 241.636 185.37 241.636 185.37C241.636 185.37 249.995 177.005 248.516 170.243C247.037 163.481 229.942 159.354 229.942 159.354Z" fill="#D0D8DB" stroke="#012A4E" stroke-width="1.49" stroke-linecap="round" stroke-linejoin="round"/>
<path d="M230.994 158.476L241.63 198.594C241.63 198.594 242.091 202.463 245.909 206.122C249.726 209.782 254.308 217.276 254.982 221.73C255.106 222.581 255.257 223.013 255.842 223.25C256.233 223.405 256.653 223.47 257.072 223.44C257.491 223.41 257.898 223.285 258.264 223.076L264.565 219.653C264.565 219.653 265.432 211.887 262.721 212.584L261.346 208.709C261.002 207.747 257.012 199.995 253.372 196.433C249.733 192.871 251.756 183.578 251.756 183.578C251.756 183.578 256.62 164.157 253.379 158.768C249.768 152.746 230.994 158.476 230.994 158.476Z" fill="#D0D8DB" stroke="#012A4E" stroke-width="1.49" stroke-linecap="round" stroke-linejoin="round"/>
<path d="M228.353 161.069H254.157C253.366 158.11 251.819 155.414 249.671 153.255C247.884 151.459 246.522 149.275 245.688 146.869C244.854 144.462 244.569 141.895 244.856 139.361C245.406 135.283 247.869 131.895 245.221 127.469C242.572 123.042 239.641 124.778 237.358 127.469L228.325 138.148C228.325 138.148 228.016 143.279 231.228 146.653C234.441 150.027 228.311 160.546 228.311 160.546L228.353 161.069Z" fill="white" stroke="#002A4E" stroke-width="1.49" stroke-linecap="round" stroke-linejoin="round"/>
<path d="M237.894 128.486C238.052 128.27 241.967 134.607 241.967 134.607C241.967 134.607 237.715 138.392 234.998 140.421C228.807 145.057 225.202 142.136 225.202 142.136C225.202 142.136 219.079 138.72 214.401 130.585C211.505 125.559 209.442 124.785 209.442 124.785C209.442 124.785 206.483 126.535 204.681 124.896C202.879 123.258 202.975 121.139 203.532 120.533C204.089 119.926 208.712 121.836 208.657 119.487C208.602 117.138 208.217 115.221 209.194 115.869C210.171 116.517 210.191 121.035 210.191 121.035C210.191 121.035 224.741 133.094 225.236 133.422C230.767 137.11 237.894 128.486 237.894 128.486Z" fill="white" stroke="#002A4E" stroke-width="1.49" stroke-linecap="round" stroke-linejoin="round"/>
<path d="M94.0419 314.026L95.0876 320.07L99.1326 319.436L99.848 317.63L98.5341 312.758L94.0419 314.026Z" fill="white" stroke="#002A4E" stroke-width="1.49" stroke-linecap="round" stroke-linejoin="round"/>
<path d="M28.2349 310.617L26.1711 315.274L27.8841 316.808C27.8841 316.808 31.3237 316.808 31.1861 316.675C31.0485 316.543 32.6101 312.618 32.6101 312.618L28.2349 310.617Z" fill="white" stroke="#002A4E" stroke-width="1.49" stroke-linecap="round" stroke-linejoin="round"/>
<path d="M99.0638 313.392C99.0638 313.392 96.7042 316.097 94.0419 315.142C91.3797 314.187 81.8037 288.91 80.5448 284.295C79.2859 279.68 62.3492 258.544 62.3492 258.544L77.0364 234.146C77.0364 234.146 88.3941 260.155 93.5466 279.074C96.6605 290.381 98.5067 302.007 99.05 313.733L99.0638 313.392Z" fill="#D0D8DB" stroke="#012A4E" stroke-width="1.49" stroke-linecap="round" stroke-linejoin="round"/>
<path d="M76.3966 225.53C76.3966 225.53 53.6469 226.798 49.8839 226.164C46.121 225.53 45.3299 243.968 43.7614 257.798C42.6904 266.437 40.0303 274.796 35.919 282.441C35.919 282.441 29.3287 300.091 28.3519 310.422C28.8763 311.177 29.5864 311.781 30.4118 312.172C31.2372 312.563 32.1491 312.729 33.0573 312.653C36.3524 312.493 50.9434 285.306 50.9434 285.306C50.9434 285.306 57.0659 274.334 60.2028 266.707C63.3398 259.081 70.8726 246.199 74.0095 241.612C77.1465 237.025 77.7725 233.665 77.7725 233.665C77.7725 233.665 76.0802 226.164 76.3966 225.53Z" fill="#D0D8DB" stroke="#012A4E" stroke-width="1.49" stroke-linecap="round" stroke-linejoin="round"/>
<path d="M97.6329 160.581C97.6396 160.495 97.6396 160.409 97.6329 160.323V160.128C97.6329 159.333 96.945 159.138 96.4222 159.145C92.2533 159.236 92.6798 163.613 91.5035 165.53L91.4072 165.705L80.703 187.315C80.3797 188.242 79.3272 188.793 78.8112 189.197L75.86 188.918C75.3618 188.984 74.9044 189.232 74.5736 189.615C71.9526 192.745 61.2898 203.39 62.3285 205.37C62.4478 205.586 62.5293 205.822 62.5693 206.067L62.6381 206.506C62.7056 206.926 62.8982 207.316 63.19 207.622C63.4818 207.928 63.8589 208.137 64.271 208.221C64.6831 208.304 65.1105 208.258 65.4961 208.089C65.8816 207.919 66.207 207.634 66.4286 207.273C67.1991 206.004 67.9351 204.54 68.5818 203.543C68.7533 203.277 68.9824 203.054 69.2518 202.891C69.5212 202.728 69.8238 202.629 70.1365 202.602L84.1427 201.905C84.7687 201.856 86.1514 201.647 86.4954 201.11C91.3109 193.728 92.9275 185.53 93.2439 184.261C93.2439 184.185 93.7048 182.275 93.7117 182.17L95.1839 166.22C95.349 164.269 95.7549 164.366 97.0069 162.456C97.3398 161.881 97.5529 161.243 97.6329 160.581Z" fill="white" stroke="#002A4E" stroke-width="1.49" stroke-linecap="round" stroke-linejoin="round"/>
<path d="M42.1998 191.637C42.5644 190.326 44.7451 183.808 52.7939 179.786C52.9435 179.715 53.112 179.696 53.2734 179.731C53.4349 179.766 53.5806 179.854 53.6882 179.981L60.306 186.952C60.8976 187.573 61.7851 187.029 61.7851 186.039V182.777C61.7851 181.982 62.3836 181.417 62.9683 181.661L68.8569 184.052C68.9145 184.073 68.9681 184.104 69.0152 184.143C69.5242 184.498 74.8281 184.498 79.5336 187.998C79.9807 188.332 79.3753 190.863 79.5336 191.658L78.4329 201.194C77.6954 201.781 76.8743 202.251 75.9976 202.588C75.4149 202.846 74.9195 203.272 74.5724 203.812C74.2253 204.352 74.0416 204.983 74.0439 205.627C74.0439 205.941 74.2503 207.154 74.1952 207.356L76.947 228.151C76.8369 228.562 67.8526 230.124 67.5224 230.186L56.034 232.403C55.8471 232.428 55.6574 232.39 55.4943 232.294C55.3313 232.198 55.2042 232.05 55.1328 231.873L42.9359 206.966C42.8514 206.79 42.8045 206.597 42.7983 206.401L42.186 192.09C42.1662 191.939 42.1709 191.786 42.1998 191.637Z" fill="white" stroke="#002A4E" stroke-width="1.49" stroke-linecap="round" stroke-linejoin="round"/>
<path d="M64.2134 237.534C62.1084 236.139 46.9396 233.156 40.0604 224.407C37.3087 220.922 36.435 213.7 36.5795 207.83C37.1642 183.697 53.6607 180.295 53.6607 180.295C54.5618 180.03 54.156 177.088 54.3142 176.551C54.3142 176.482 54.0046 176.022 54.0184 175.952L55.5318 172.752C55.5707 172.571 55.6307 172.396 55.7107 172.23L57.4993 168.458C57.6864 168.063 57.9869 167.735 58.3612 167.516C58.7356 167.297 59.1665 167.198 59.5975 167.231L66.6418 167.775C67.1984 167.82 67.7161 168.082 68.0857 168.506C68.4553 168.93 68.648 169.482 68.6231 170.048L68.3685 175.757C68.3555 176.068 68.2769 176.373 68.1381 176.65C67.9993 176.928 67.8034 177.172 67.5636 177.367L61.9639 181.891C61.4067 182.337 61.9089 182.77 61.9639 183.488V186.973C61.9639 189.002 61.104 189.002 60.8151 188.765L51.8721 198.419L51.7345 198.573C40.9065 212.431 59.797 229.601 65.3279 233.428C65.3279 233.428 68.9739 236.432 69.6481 237.255C69.992 237.673 72.3516 240.949 71.0239 244.226C69.6962 247.502 66.9789 242.832 66.9789 241.082C66.9789 239.332 64.2134 237.534 64.2134 237.534Z" fill="white" stroke="#002A4E" stroke-width="1.49" stroke-linecap="round" stroke-linejoin="round"/>
<path d="M64.4061 168.862L67.5224 168.995C68.4923 169.037 70.0677 168.388 70.5493 167.531C71.5467 165.781 71.9251 161.473 66.8276 160.86C59.3842 159.968 63.3879 165.677 56.9077 165.042C50.4274 164.408 54.954 168.869 54.156 171.449C53.358 174.028 51.4043 175.025 53.0278 176.363C54.6513 177.702 57.9396 176.252 56.7976 174.216C55.2842 171.546 57.7125 169.448 59.0884 170.731C60.4643 172.013 58.9302 175.067 58.9302 175.067C58.9302 175.067 57.3892 177.994 58.0703 179.187C59.0009 180.514 60.0239 181.772 61.1315 182.951C61.3792 183.226 61.6817 183.445 62.019 183.592C63.6081 184.289 68.286 186.088 67.9214 183.16C67.7051 181.674 67.8515 180.156 68.3479 178.74C68.574 178.126 68.5645 177.448 68.3213 176.84C68.078 176.232 67.6187 175.738 67.0339 175.457C65.9783 175.006 64.8496 174.755 63.7044 174.718C60.1134 174.481 61.0627 171.839 62.0396 170.173C62.2787 169.757 62.6255 169.415 63.0426 169.184C63.4597 168.953 63.9312 168.842 64.4061 168.862Z" fill="#FF6D31" stroke="#002A4E" stroke-width="1.49" stroke-linecap="round" stroke-linejoin="round"/>
<path d="M34.894 319.589C34.894 319.589 37.9484 321.68 38.1892 322.775C38.6295 324.866 35.0798 325.11 32.2386 323.089C27.9873 320.07 25.5864 319.275 24.9948 318.794C24.4032 318.313 26.1299 313.74 26.6252 314.661C27.0448 315.455 28.001 317.686 31.4957 315.616C32.3649 317.15 33.5189 318.499 34.894 319.589Z" fill="white" stroke="#002A4E" stroke-width="1.49" stroke-linecap="round" stroke-linejoin="round"/>
<path d="M103.927 319.275C103.927 319.275 107.532 319.436 108.199 320.349C109.445 322.043 106.762 323.36 103.295 323.089C100.543 322.872 95.7273 322.991 94.9706 322.782C94.2139 322.573 94.379 317.435 94.9156 318.334C95.7686 319.729 98.7473 319.275 99.7861 317.331C99.7861 317.331 101.912 319.429 103.927 319.275Z" fill="white" stroke="#002A4E" stroke-width="1.49" stroke-linecap="round" stroke-linejoin="round"/>
<path d="M40.9478 189.434C40.8171 189.685 52.3398 198.385 52.3398 198.385L61.5718 189.287L53.0828 180.26C53.0828 180.26 44.4837 182.637 40.9478 189.434Z" fill="white" stroke="#002A4E" stroke-width="1.49" stroke-linecap="round" stroke-linejoin="round"/>
</svg>
