<svg width="64" height="17" viewBox="0 0 64 17" fill="none" xmlns="http://www.w3.org/2000/svg">
<path fill-rule="evenodd" clip-rule="evenodd" d="M20.8802 4.07788H24.3413C25.4997 4.07788 26.3722 4.39811 26.8641 5.00359C27.312 5.55498 27.4603 6.34231 27.3054 7.34437C26.9618 9.63478 25.646 10.7906 23.3661 10.7906H22.2704C22.034 10.7906 21.8321 10.9708 21.7957 11.2163L21.4181 13.7241C21.3812 13.9696 21.1798 14.1499 20.9429 14.1499H19.2905C19.1129 14.1499 18.9773 13.9844 19.0051 13.801L20.4049 4.50309C20.4419 4.25814 20.6433 4.07788 20.8802 4.07788ZM22.6841 8.77447C23.6017 8.77447 24.5506 8.77447 24.7399 7.47339C24.8092 7.01637 24.7535 6.68553 24.5719 6.46285C24.2672 6.0896 23.6776 6.0896 23.0526 6.0896H22.8132C22.6715 6.0896 22.55 6.19776 22.5283 6.34462L22.1619 8.77447H22.6841Z" fill="#253B80"/>
<path fill-rule="evenodd" clip-rule="evenodd" d="M33.0305 7.43161H34.6879C34.8651 7.43161 35.0002 7.59756 34.9718 7.78047L34.0761 13.7233C34.0386 13.9688 33.8382 14.1491 33.6008 14.1491H32.1079C31.9313 14.1491 31.7956 13.9837 31.8235 13.7992L31.8974 13.3167C31.8974 13.3167 31.079 14.3108 29.6033 14.3108C28.7434 14.3108 28.0207 14.051 27.5156 13.4275C26.965 12.7494 26.7398 11.777 26.8982 10.7601C27.2029 8.72155 28.7672 7.26831 30.5987 7.26831C31.3973 7.26831 32.1975 7.4507 32.5563 7.99626L32.6722 8.17228L32.7456 7.68663C32.7673 7.53977 32.8893 7.43161 33.0305 7.43161ZM30.5067 12.4684C31.4652 12.4684 32.2168 11.8025 32.3767 10.8105C32.4491 10.3302 32.3489 9.89434 32.0963 9.58206C31.8443 9.27296 31.4617 9.10913 30.991 9.10913C30.0472 9.10913 29.283 9.79678 29.1337 10.7803C29.0557 11.2628 29.1489 11.6959 29.3938 12.0002C29.6408 12.3067 30.0254 12.4684 30.5067 12.4684Z" fill="#253B80"/>
<path d="M43.5127 7.43237H41.8472C41.6883 7.43237 41.539 7.51508 41.4489 7.65346L39.1518 11.1983L38.1781 7.79184C38.1168 7.5787 37.9291 7.43237 37.7165 7.43237H36.0798C35.8809 7.43237 35.7428 7.63597 35.806 7.83213L37.6406 13.4723L35.9158 16.023C35.7802 16.2239 35.9169 16.5002 36.1512 16.5002H37.8147C37.9726 16.5002 38.1204 16.4196 38.2099 16.2839L43.7496 7.90689C43.8822 7.70648 43.746 7.43237 43.5127 7.43237Z" fill="#253B80"/>
<path fill-rule="evenodd" clip-rule="evenodd" d="M45.5667 4.07788H49.0283C50.1867 4.07788 51.0587 4.39811 51.5501 5.00359C51.998 5.55498 52.1473 6.34231 51.992 7.34437C51.6478 9.63478 50.3325 10.7906 48.0521 10.7906H46.9569C46.7205 10.7906 46.5186 10.9708 46.4822 11.2163L46.0849 13.8519C46.0591 14.0237 45.9179 14.1499 45.7529 14.1499H43.9765C43.7999 14.1499 43.6643 13.9844 43.6921 13.801L45.092 4.50309C45.1289 4.25814 45.3303 4.07788 45.5667 4.07788ZM47.3704 8.77447C48.2885 8.77447 49.2374 8.77447 49.4261 7.47339C49.4955 7.01637 49.4403 6.68553 49.2586 6.46285C48.954 6.0896 48.3639 6.0896 47.7393 6.0896H47.5C47.3578 6.0896 47.2373 6.19776 47.2155 6.34462L46.8486 8.77447H47.3704Z" fill="#179BD7"/>
<path fill-rule="evenodd" clip-rule="evenodd" d="M57.7178 7.43161H59.3742C59.5519 7.43161 59.6875 7.59756 59.6602 7.78047L58.7639 13.7233C58.7269 13.9688 58.5255 14.1491 58.2892 14.1491H56.7967C56.6191 14.1491 56.4835 13.9837 56.5113 13.7992L56.5852 13.3167C56.5852 13.3167 55.7668 14.3108 54.2911 14.3108C53.4312 14.3108 52.7096 14.051 52.2035 13.4275C51.6528 12.7494 51.4287 11.777 51.5866 10.7601C51.8912 8.72155 53.455 7.26831 55.2866 7.26831C56.0852 7.26831 56.8848 7.4507 57.2436 7.99626L57.36 8.17228L57.4334 7.68663C57.4546 7.53977 57.5756 7.43161 57.7178 7.43161ZM55.1946 12.4684C56.1532 12.4684 56.9057 11.8025 57.0646 10.8105C57.138 10.3302 57.0378 9.89434 56.7843 9.58206C56.5322 9.27296 56.1496 9.10913 55.679 9.10913C54.7351 9.10913 53.9719 9.79678 53.8216 10.7803C53.7447 11.2628 53.8368 11.6959 54.0817 12.0002C54.3287 12.3067 54.7144 12.4684 55.1946 12.4684Z" fill="#179BD7"/>
<path d="M61.3285 4.33343L59.9079 13.8015C59.8801 13.985 60.0157 14.1504 60.1924 14.1504H61.6205C61.8579 14.1504 62.0593 13.9701 62.0958 13.7246L63.4966 4.42727C63.5244 4.24383 63.3888 4.07788 63.2122 4.07788H61.6129C61.4717 4.07841 61.3503 4.18657 61.3285 4.33343Z" fill="#179BD7"/>
<path d="M4.63002 15.9569L4.89471 14.1956L4.30511 14.1813H1.48975L3.44628 1.18481C3.45236 1.14558 3.47209 1.109 3.50094 1.08302C3.52979 1.05704 3.56673 1.04272 3.60519 1.04272H8.3523C9.92826 1.04272 11.0158 1.38629 11.5837 2.0644C11.8499 2.38251 12.0194 2.71494 12.1014 3.08077C12.1874 3.46462 12.189 3.92323 12.1049 4.48258L12.0989 4.52341V4.88181L12.3651 5.03981C12.5893 5.1644 12.7674 5.30702 12.9041 5.47032C13.1318 5.74231 13.2791 6.08799 13.3413 6.49782C13.4056 6.91932 13.3843 7.42088 13.2791 7.98871C13.1576 8.6419 12.9612 9.21079 12.6961 9.6763C12.4521 10.1052 12.1414 10.461 11.7724 10.7367C11.4202 10.9986 11.0017 11.1974 10.5285 11.3247C10.07 11.4498 9.54718 11.5129 8.97378 11.5129H8.60433C8.34015 11.5129 8.08357 11.6125 7.88215 11.7912C7.68022 11.9736 7.54661 12.2228 7.50562 12.4953L7.47778 12.6538L7.01016 15.7581L6.9889 15.8721C6.98333 15.9081 6.97372 15.9261 6.95955 15.9383C6.94689 15.9495 6.92868 15.9569 6.91096 15.9569H4.63002Z" fill="#253B80"/>
<path d="M12.6199 4.56421C12.6057 4.65911 12.5895 4.75614 12.5713 4.85581C11.9453 8.22303 9.8035 9.38626 7.06809 9.38626H5.67534C5.34081 9.38626 5.05892 9.64076 5.0068 9.98644L4.29372 14.7242L4.09179 16.0672C4.05788 16.2941 4.22489 16.4987 4.44352 16.4987H6.91374C7.20625 16.4987 7.45474 16.2761 7.5008 15.9738L7.52509 15.8424L7.99019 12.7503L8.02004 12.5806C8.06559 12.2774 8.31459 12.0547 8.60711 12.0547H8.97655C11.3698 12.0547 13.2434 11.0367 13.791 8.09102C14.0197 6.86045 13.9013 5.83295 13.296 5.1103C13.1128 4.8924 12.8856 4.7116 12.6199 4.56421Z" fill="#179BD7"/>
<path d="M11.9631 4.29082C11.8674 4.26166 11.7688 4.23515 11.6675 4.2113C11.5658 4.18797 11.4616 4.16729 11.3543 4.14926C10.9787 4.08564 10.5673 4.05542 10.1265 4.05542H6.40573C6.31413 4.05542 6.22709 4.07716 6.14915 4.11639C5.97758 4.20281 5.85005 4.373 5.81918 4.58137L5.02766 9.8334L5.00488 9.98663C5.05701 9.64095 5.3389 9.38646 5.67343 9.38646H7.06618C9.80159 9.38646 11.9434 8.22269 12.5694 4.856C12.5881 4.75633 12.6038 4.6593 12.618 4.5644C12.4596 4.47639 12.288 4.4011 12.1033 4.33695C12.0577 4.32104 12.0107 4.30567 11.9631 4.29082Z" fill="#222D65"/>
<path d="M5.82012 4.58167C5.85099 4.37331 5.97852 4.20312 6.15008 4.11723C6.22853 4.07799 6.31507 4.05625 6.40667 4.05625H10.1274C10.5682 4.05625 10.9797 4.08647 11.3552 4.1501C11.4625 4.16812 11.5667 4.1888 11.6685 4.21213C11.7697 4.23599 11.8684 4.2625 11.964 4.29166C12.0116 4.3065 12.0587 4.32188 12.1047 4.33725C12.2894 4.40141 12.461 4.47722 12.6194 4.5647C12.8056 3.32035 12.6179 2.47311 11.9757 1.70593C11.2676 0.861344 9.98978 0.499756 8.3546 0.499756H3.6075C3.27348 0.499756 2.98855 0.754246 2.93693 1.10046L0.959645 14.2306C0.920676 14.4903 1.11198 14.7247 1.36199 14.7247H4.29274L5.02859 9.83371L5.82012 4.58167Z" fill="#253B80"/>
</svg>
