<svg width="16" height="16" viewBox="0 0 16 16" fill="none" xmlns="http://www.w3.org/2000/svg">
<path d="M12.898 5.77299L6.89798 11.773C6.84572 11.8254 6.78362 11.867 6.71525 11.8954C6.64688 11.9238 6.57357 11.9384 6.49954 11.9384C6.42551 11.9384 6.3522 11.9238 6.28383 11.8954C6.21546 11.867 6.15336 11.8254 6.1011 11.773L3.4761 9.14799C3.42378 9.09566 3.38227 9.03355 3.35396 8.96518C3.32564 8.89682 3.31107 8.82355 3.31107 8.74955C3.31107 8.67555 3.32564 8.60228 3.35396 8.53392C3.38227 8.46555 3.42378 8.40344 3.4761 8.35111C3.52843 8.29879 3.59054 8.25728 3.65891 8.22897C3.72727 8.20065 3.80054 8.18607 3.87454 8.18607C3.94854 8.18607 4.02181 8.20065 4.09017 8.22897C4.15854 8.25728 4.22066 8.29879 4.27298 8.35111L6.50001 10.5781L12.102 4.97705C12.2077 4.87138 12.351 4.81201 12.5005 4.81201C12.6499 4.81201 12.7932 4.87138 12.8989 4.97705C13.0046 5.08272 13.064 5.22604 13.064 5.37549C13.064 5.52493 13.0046 5.66825 12.8989 5.77393L12.898 5.77299Z" fill="white"/>
</svg>
