<svg width="15" height="16" viewBox="0 0 15 16" fill="none" xmlns="http://www.w3.org/2000/svg">
<path d="M12.398 5.52299L6.39796 11.523C6.34571 11.5754 6.28361 11.617 6.21524 11.6454C6.14686 11.6738 6.07356 11.6884 5.99953 11.6884C5.92549 11.6884 5.85219 11.6738 5.78382 11.6454C5.71544 11.617 5.65335 11.5754 5.60109 11.523L2.97609 8.89799C2.92377 8.84566 2.88226 8.78355 2.85394 8.71518C2.82563 8.64682 2.81105 8.57355 2.81105 8.49955C2.81105 8.42555 2.82563 8.35228 2.85394 8.28392C2.88226 8.21555 2.92377 8.15344 2.97609 8.10111C3.02841 8.04879 3.09053 8.00728 3.15889 7.97897C3.22726 7.95065 3.30053 7.93607 3.37453 7.93607C3.44852 7.93607 3.52179 7.95065 3.59016 7.97897C3.65852 8.00728 3.72064 8.04879 3.77296 8.10111L5.99999 10.3281L11.602 4.72705C11.7077 4.62138 11.851 4.56201 12.0005 4.56201C12.1499 4.56201 12.2932 4.62138 12.3989 4.72705C12.5046 4.83272 12.5639 4.97604 12.5639 5.12549C12.5639 5.27493 12.5046 5.41825 12.3989 5.52393L12.398 5.52299Z" fill="white"/>
</svg>
