<svg width="79" height="20" viewBox="0 0 79 20" fill="none" xmlns="http://www.w3.org/2000/svg">
<g clip-path="url(#clip0_604_550)">
<path fill-rule="evenodd" clip-rule="evenodd" d="M25.0661 4.47266H29.3925C30.8406 4.47266 31.9312 4.87295 32.5461 5.62978C33.1059 6.31902 33.2913 7.30318 33.0977 8.55574C32.6681 11.4187 31.0234 12.8635 28.1735 12.8635H26.8039C26.5085 12.8635 26.2561 13.0888 26.2105 13.3957L25.7386 16.5304C25.6924 16.8372 25.4406 17.0625 25.1446 17.0625H23.0791C22.8571 17.0625 22.6875 16.8558 22.7223 16.6265L24.4721 5.00417C24.5183 4.69798 24.7701 4.47266 25.0661 4.47266ZM27.3198 10.3439C28.4668 10.3439 29.6529 10.3439 29.8895 8.71752C29.9762 8.14625 29.9066 7.7327 29.6795 7.45436C29.2986 6.98779 28.5616 6.98779 27.7804 6.98779H27.4812C27.304 6.98779 27.1522 7.12299 27.125 7.30657L26.667 10.3439H27.3198Z" fill="#253B80"/>
<path fill-rule="evenodd" clip-rule="evenodd" d="M40.2527 8.6653H42.3244C42.5459 8.6653 42.7148 8.87274 42.6793 9.10138L41.5596 16.5299C41.5128 16.8368 41.2623 17.0621 40.9656 17.0621H39.0994C38.8786 17.0621 38.7091 16.8553 38.7439 16.6247L38.8363 16.0216C38.8363 16.0216 37.8133 17.2642 35.9686 17.2642C34.8939 17.2642 33.9905 16.9395 33.3591 16.1601C32.6709 15.3125 32.3894 14.097 32.5874 12.8259C32.9682 10.2777 34.9236 8.46118 37.213 8.46118C38.2112 8.46118 39.2114 8.68916 39.6599 9.37111L39.8048 9.59114L39.8965 8.98408C39.9237 8.8005 40.0762 8.6653 40.2527 8.6653ZM37.0993 14.9618C38.2975 14.9618 39.2369 14.1294 39.4368 12.8894C39.5272 12.289 39.402 11.7442 39.0863 11.3539C38.7713 10.9675 38.293 10.7627 37.7047 10.7627C36.5249 10.7627 35.5697 11.6223 35.383 12.8516C35.2856 13.4547 35.402 13.9962 35.7082 14.3766C36.0169 14.7596 36.4977 14.9618 37.0993 14.9618Z" fill="#253B80"/>
<path d="M53.3583 8.66504H51.2764C51.0777 8.66504 50.8911 8.76843 50.7785 8.9414L47.9071 13.3724L46.69 9.11437C46.6134 8.84795 46.3787 8.66504 46.113 8.66504H44.0672C43.8186 8.66504 43.6459 8.91953 43.7249 9.16474L46.0181 16.2149L43.8622 19.4033C43.6927 19.6544 43.8635 19.9997 44.1564 19.9997H46.2358C46.4331 19.9997 46.6178 19.899 46.7298 19.7293L53.6543 9.25818C53.8201 9.00767 53.6499 8.66504 53.3583 8.66504Z" fill="#253B80"/>
<path fill-rule="evenodd" clip-rule="evenodd" d="M55.9249 4.47266H60.2519C61.6999 4.47266 62.7899 4.87295 63.4042 5.62978C63.964 6.31902 64.1506 7.30318 63.9564 8.55574C63.5263 11.4187 61.8821 12.8635 59.0316 12.8635H57.6626C57.3672 12.8635 57.1148 13.0888 57.0692 13.3957L56.5727 16.6901C56.5404 16.9048 56.3639 17.0625 56.1577 17.0625H53.9372C53.7164 17.0625 53.5469 16.8558 53.5817 16.6265L55.3315 5.00417C55.3777 4.69798 55.6294 4.47266 55.9249 4.47266ZM58.1815 10.344C59.3291 10.344 60.5152 10.344 60.7512 8.71764C60.8378 8.14637 60.7689 7.73282 60.5418 7.45448C60.1609 6.98792 59.4233 6.98792 58.6427 6.98792H58.3435C58.1657 6.98792 58.0151 7.12311 57.9879 7.30669L57.5293 10.344H58.1815Z" fill="#179BD7"/>
<path fill-rule="evenodd" clip-rule="evenodd" d="M71.1116 8.6653H73.1821C73.4041 8.6653 73.5737 8.87274 73.5395 9.10138L72.4192 16.5299C72.373 16.8368 72.1212 17.0621 71.8258 17.0621H69.9602C69.7382 17.0621 69.5686 16.8553 69.6034 16.6247L69.6958 16.0216C69.6958 16.0216 68.6729 17.2642 66.8282 17.2642C65.7534 17.2642 64.8513 16.9395 64.2187 16.1601C63.5304 15.3125 63.2502 14.097 63.4475 12.8259C63.8284 10.2777 65.7831 8.46118 68.0725 8.46118C69.0708 8.46118 70.0703 8.68916 70.5188 9.37111L70.6643 9.59114L70.756 8.98408C70.7826 8.8005 70.9338 8.6653 71.1116 8.6653ZM67.9593 14.9618C69.1574 14.9618 70.0981 14.1294 70.2968 12.8894C70.3885 12.289 70.2632 11.7442 69.9463 11.3539C69.6313 10.9675 69.153 10.7627 68.5647 10.7627C67.3849 10.7627 66.4309 11.6223 66.243 12.8516C66.1469 13.4547 66.262 13.9962 66.5682 14.3766C66.8769 14.7596 67.3589 14.9618 67.9593 14.9618Z" fill="#179BD7"/>
<path d="M75.6265 4.79136L73.8507 16.6264C73.8159 16.8557 73.9855 17.0625 74.2063 17.0625H75.9915C76.2882 17.0625 76.5399 16.8371 76.5855 16.5303L78.3365 4.90866C78.3713 4.67936 78.2018 4.47192 77.981 4.47192H75.982C75.8055 4.47259 75.6537 4.60778 75.6265 4.79136Z" fill="#179BD7"/>
<path d="M4.75638 19.3213L5.08723 17.1197L4.35024 17.1018H0.831055L3.27671 0.856323C3.2843 0.807281 3.30897 0.761552 3.34503 0.729078C3.38109 0.696605 3.42727 0.678711 3.47535 0.678711H9.4092C11.3791 0.678711 12.7386 1.10816 13.4484 1.95579C13.7811 2.35343 13.9931 2.76896 14.0955 3.22625C14.2031 3.70606 14.205 4.27933 14.1 4.97851L14.0924 5.02954V5.47754L14.4251 5.67504C14.7054 5.83078 14.9281 6.00905 15.0989 6.21317C15.3835 6.55315 15.5676 6.98525 15.6454 7.49754C15.7258 8.02441 15.6992 8.65136 15.5676 9.36114C15.4158 10.1776 15.1703 10.8887 14.8389 11.4706C14.5339 12.0068 14.1455 12.4515 13.6843 12.7961C13.2441 13.1235 12.7209 13.372 12.1294 13.531C11.5563 13.6874 10.9028 13.7663 10.186 13.7663H9.72423C9.39401 13.7663 9.07328 13.8909 8.8215 14.1142C8.5691 14.3422 8.40209 14.6537 8.35085 14.9943L8.31605 15.1925L7.73152 19.0728L7.70495 19.2153C7.698 19.2603 7.68598 19.2829 7.66826 19.2981C7.65245 19.312 7.62967 19.3213 7.60753 19.3213H4.75638Z" fill="#253B80"/>
<path d="M14.7393 5.08105V5.08105V5.08105C14.7215 5.19968 14.7013 5.32096 14.6785 5.44556C13.896 9.65456 11.2188 11.1086 7.79957 11.1086H6.05864C5.64049 11.1086 5.28812 11.4267 5.22297 11.8588V11.8588V11.8588L4.33162 17.781L4.07921 19.4597C4.03683 19.7433 4.24559 19.9991 4.51887 19.9991H7.60663C7.97227 19.9991 8.28288 19.7208 8.34045 19.343L8.37081 19.1787L8.95218 15.3136L8.9895 15.1015C9.04644 14.7225 9.35768 14.4441 9.72333 14.4441H10.1851C13.1767 14.4441 15.5186 13.1717 16.2031 9.48954C16.4891 7.95134 16.341 6.66697 15.5844 5.76367C15.3554 5.49128 15.0714 5.26529 14.7393 5.08105Z" fill="#179BD7"/>
<path d="M13.9194 4.73883C13.7998 4.70238 13.6765 4.66925 13.5499 4.63942C13.4228 4.61026 13.2925 4.58442 13.1584 4.56188C12.689 4.48236 12.1747 4.44458 11.6237 4.44458H6.97273C6.85823 4.44458 6.74942 4.47175 6.652 4.52079C6.43755 4.62882 6.27813 4.84156 6.23954 5.10201L5.25015 11.667L5.22168 11.8585C5.28684 11.4264 5.6392 11.1083 6.05735 11.1083H7.79829C11.2175 11.1083 13.8947 9.65364 14.6772 5.4453C14.7007 5.32071 14.7203 5.19943 14.738 5.0808C14.54 4.97079 14.3255 4.87668 14.0946 4.79649C14.0377 4.77661 13.9788 4.75739 13.9194 4.73883Z" fill="#222D65"/>
<path d="M6.24105 5.10236C6.27964 4.84191 6.43906 4.62917 6.65351 4.52181C6.75156 4.47277 6.85974 4.4456 6.97424 4.4456H11.6252C12.1762 4.4456 12.6905 4.48337 13.1599 4.5629C13.294 4.58543 13.4243 4.61128 13.5514 4.64044C13.678 4.67026 13.8013 4.7034 13.9209 4.73985C13.9804 4.75841 14.0392 4.77762 14.0968 4.79684C14.3277 4.87703 14.5421 4.9718 14.7401 5.08115C14.9729 3.52573 14.7382 2.46668 13.9354 1.50771C13.0504 0.451982 11.4531 0 9.40914 0H3.47529C3.05777 0 2.70162 0.318111 2.63709 0.750874L0.165499 17.1634C0.116788 17.4881 0.355913 17.7811 0.668421 17.7811H4.33184L5.25165 11.6674L6.24105 5.10236Z" fill="#253B80"/>
</g>
<defs>
<clipPath id="clip0_604_550">
<rect width="78.1817" height="19.9998" fill="white" transform="translate(0.15918)"/>
</clipPath>
</defs>
</svg>
