<svg width="28" height="28" viewBox="0 0 28 28" fill="none" xmlns="http://www.w3.org/2000/svg">
<path fill-rule="evenodd" clip-rule="evenodd" d="M23.3333 24.6667C22.596 24.6667 22 24.0707 22 23.3333C22 22.596 22.596 22 23.3333 22C24.0707 22 24.6667 22.596 24.6667 23.3333C24.6667 24.0707 24.0707 24.6667 23.3333 24.6667ZM23.3333 19.3333C21.128 19.3333 19.3333 21.128 19.3333 23.3333C19.3333 25.5387 21.128 27.3333 23.3333 27.3333C25.5387 27.3333 27.3333 25.5387 27.3333 23.3333C27.3333 21.128 25.5387 19.3333 23.3333 19.3333ZM14 24.6667C13.2627 24.6667 12.6667 24.0707 12.6667 23.3333C12.6667 22.596 13.2627 22 14 22C14.7373 22 15.3333 22.596 15.3333 23.3333C15.3333 24.0707 14.7373 24.6667 14 24.6667ZM14 19.3333C11.7947 19.3333 9.99999 21.128 9.99999 23.3333C9.99999 25.5387 11.7947 27.3333 14 27.3333C16.2053 27.3333 18 25.5387 18 23.3333C18 21.128 16.2053 19.3333 14 19.3333ZM4.66666 24.6667C3.92932 24.6667 3.33332 24.0707 3.33332 23.3333C3.33332 22.596 3.92932 22 4.66666 22C5.40399 22 5.99999 22.596 5.99999 23.3333C5.99999 24.0707 5.40399 24.6667 4.66666 24.6667ZM4.66666 19.3333C2.46132 19.3333 0.666656 21.128 0.666656 23.3333C0.666656 25.5387 2.46132 27.3333 4.66666 27.3333C6.87199 27.3333 8.66666 25.5387 8.66666 23.3333C8.66666 21.128 6.87199 19.3333 4.66666 19.3333ZM23.3333 15.3333C22.596 15.3333 22 14.7373 22 14C22 13.2627 22.596 12.6667 23.3333 12.6667C24.0707 12.6667 24.6667 13.2627 24.6667 14C24.6667 14.7373 24.0707 15.3333 23.3333 15.3333ZM23.3333 9.99999C21.128 9.99999 19.3333 11.7947 19.3333 14C19.3333 16.2053 21.128 18 23.3333 18C25.5387 18 27.3333 16.2053 27.3333 14C27.3333 11.7947 25.5387 9.99999 23.3333 9.99999ZM14 15.3333C13.2627 15.3333 12.6667 14.7373 12.6667 14C12.6667 13.2627 13.2627 12.6667 14 12.6667C14.7373 12.6667 15.3333 13.2627 15.3333 14C15.3333 14.7373 14.7373 15.3333 14 15.3333ZM14 9.99999C11.7947 9.99999 9.99999 11.7947 9.99999 14C9.99999 16.2053 11.7947 18 14 18C16.2053 18 18 16.2053 18 14C18 11.7947 16.2053 9.99999 14 9.99999ZM4.66666 15.3333C3.92932 15.3333 3.33332 14.7373 3.33332 14C3.33332 13.2627 3.92932 12.6667 4.66666 12.6667C5.40399 12.6667 5.99999 13.2627 5.99999 14C5.99999 14.7373 5.40399 15.3333 4.66666 15.3333ZM4.66666 9.99999C2.46132 9.99999 0.666656 11.7947 0.666656 14C0.666656 16.2053 2.46132 18 4.66666 18C6.87199 18 8.66666 16.2053 8.66666 14C8.66666 11.7947 6.87199 9.99999 4.66666 9.99999ZM23.3333 3.33332C24.0707 3.33332 24.6667 3.92932 24.6667 4.66666C24.6667 5.40399 24.0707 5.99999 23.3333 5.99999C22.596 5.99999 22 5.40399 22 4.66666C22 3.92932 22.596 3.33332 23.3333 3.33332ZM23.3333 8.66666C25.5387 8.66666 27.3333 6.87199 27.3333 4.66666C27.3333 2.46132 25.5387 0.666656 23.3333 0.666656C21.128 0.666656 19.3333 2.46132 19.3333 4.66666C19.3333 6.87199 21.128 8.66666 23.3333 8.66666ZM14 5.99999C13.2627 5.99999 12.6667 5.40266 12.6667 4.66666C12.6667 3.92932 13.2627 3.33332 14 3.33332C14.7373 3.33332 15.3333 3.92932 15.3333 4.66666C15.3333 5.40266 14.7373 5.99999 14 5.99999ZM14 0.666656C11.7947 0.666656 9.99999 2.46132 9.99999 4.66666C9.99999 6.87199 11.7947 8.66666 14 8.66666C16.2053 8.66666 18 6.87199 18 4.66666C18 2.46132 16.2053 0.666656 14 0.666656ZM4.66666 5.99999C3.92932 5.99999 3.33332 5.40399 3.33332 4.66666C3.33332 3.92932 3.92932 3.33332 4.66666 3.33332C5.40399 3.33332 5.99999 3.92932 5.99999 4.66666C5.99999 5.40399 5.40399 5.99999 4.66666 5.99999ZM4.66666 0.666656C2.46132 0.666656 0.666656 2.46132 0.666656 4.66666C0.666656 6.87199 2.46132 8.66666 4.66666 8.66666C6.87199 8.66666 8.66666 6.87199 8.66666 4.66666C8.66666 2.46132 6.87199 0.666656 4.66666 0.666656Z" fill="#03133D"/>
</svg>
