<svg width="28" height="28" viewBox="0 0 28 28" fill="none" xmlns="http://www.w3.org/2000/svg">
<path fill-rule="evenodd" clip-rule="evenodd" d="M25.7617 16.7435C25.0643 16.4955 24.3043 16.8595 24.0603 17.5555C22.5563 21.8088 18.5123 24.6662 14.0003 24.6662C8.11899 24.6662 3.33366 19.8822 3.33366 13.9995C3.33366 9.48751 6.19099 5.44351 10.4443 3.93951C11.139 3.69551 11.503 2.93418 11.2577 2.23951C11.0123 1.54618 10.251 1.18085 9.55633 1.42751C4.23899 3.30618 0.666992 8.35818 0.666992 13.9995C0.666992 21.3515 6.64833 27.3328 14.0003 27.3328C19.6417 27.3328 24.6937 23.7622 26.5737 18.4435C26.819 17.7502 26.4563 16.9888 25.7617 16.7435ZM16.6667 11.3333V3.428C20.748 4.01467 23.9853 7.25067 24.572 11.3333H16.6667ZM15.3333 0.666687C14.5973 0.666687 13.9999 1.26269 13.9999 2.00002V12.6667C13.9999 13.404 14.5973 14 15.3333 14H25.9999C26.7359 14 27.3333 13.404 27.3333 12.6667C27.3333 6.04935 21.9493 0.666687 15.3333 0.666687Z" fill="#03133D"/>
</svg>
