<svg width="44" height="19" viewBox="0 0 44 19" fill="none" xmlns="http://www.w3.org/2000/svg">
<path fill-rule="evenodd" clip-rule="evenodd" d="M23.9766 2.93925L20.9532 3.58811V1.13685L23.9766 0.5V2.93925ZM30.2641 4.29703C29.0837 4.29703 28.3248 4.84977 27.9032 5.23428L27.7466 4.48929H25.0966V18.5L28.108 17.8631L28.12 14.4626C28.5536 14.775 29.1921 15.2196 30.2521 15.2196C32.4082 15.2196 34.3716 13.4893 34.3716 9.68021C34.3596 6.19556 32.3721 4.29703 30.2641 4.29703ZM29.5413 12.576C28.8307 12.576 28.4091 12.3236 28.12 12.0112L28.1079 7.55329C28.4211 7.20482 28.8547 6.9645 29.5413 6.9645C30.6375 6.9645 31.3963 8.19014 31.3963 9.76423C31.3963 11.3744 30.6495 12.576 29.5413 12.576ZM43.8636 9.80036C43.8636 6.72427 42.3699 4.29703 39.5151 4.29703C36.6483 4.29703 34.9138 6.72427 34.9138 9.77633C34.9138 13.3932 36.9615 15.2196 39.9006 15.2196C41.334 15.2196 42.4181 14.8952 43.2372 14.4385V12.0353C42.4181 12.4439 41.4786 12.6962 40.2861 12.6962C39.1176 12.6962 38.0817 12.2877 37.9492 10.8698H43.8395C43.8395 10.8036 43.8438 10.6534 43.8488 10.4803L43.8488 10.4798V10.4796L43.8488 10.4793L43.8488 10.4789L43.8488 10.4786L43.8488 10.4784C43.8556 10.2432 43.8636 9.96616 43.8636 9.80036ZM37.913 8.65879C37.913 7.30098 38.7442 6.73623 39.503 6.73623C40.2378 6.73623 41.0208 7.30098 41.0208 8.65879H37.913ZM20.9529 4.50138H23.9764V15.0154H20.9529V4.50138ZM17.5203 4.5014L17.713 5.39059C18.4237 4.09286 19.833 4.35721 20.2185 4.5014V7.26508C19.8451 7.13291 18.6405 6.96468 17.9298 7.88992V15.0154H14.9185V4.5014H17.5203ZM11.6901 1.89381L8.751 2.51865L8.73895 12.1435C8.73895 13.9218 10.076 15.2316 11.8587 15.2316C12.8465 15.2316 13.5692 15.0513 13.9667 14.8351V12.3958C13.5812 12.552 11.6781 13.1048 11.6781 11.3264V7.0607H13.9667V4.50129H11.6781L11.6901 1.89381ZM4.57138 6.90451C3.93296 6.90451 3.54751 7.08475 3.54751 7.55337C3.54751 8.06504 4.21088 8.29011 5.03387 8.56935C6.37554 9.02456 8.14142 9.62371 8.14889 11.8431C8.14889 13.994 6.42638 15.2316 3.92092 15.2316C2.88501 15.2316 1.75273 15.0273 0.6325 14.5467V11.6869C1.64432 12.2396 2.92114 12.6482 3.92092 12.6482C4.59547 12.6482 5.07729 12.4679 5.07729 11.9152C5.07729 11.3484 4.35817 11.0894 3.49001 10.7766C2.16786 10.3003 0.5 9.69948 0.5 7.69757C0.5 5.57073 2.12614 4.29703 4.57138 4.29703C5.57115 4.29703 6.55888 4.45324 7.55866 4.84977V7.67353C6.6432 7.18088 5.48683 6.90451 4.57138 6.90451Z" fill="white"/>
</svg>
