<svg width="407" height="146" viewBox="0 0 407 146" fill="none" xmlns="http://www.w3.org/2000/svg">
<path fill-rule="evenodd" clip-rule="evenodd" d="M4.41302 145.042L4.9493 143.749C5.48973 143.973 6.08345 144.098 6.70975 144.098H8.46685V145.498H6.70975C5.8962 145.498 5.12047 145.336 4.41302 145.042ZM398.461 145.498V144.098H400.218C400.844 144.098 401.438 143.973 401.978 143.749L402.514 145.042C401.807 145.336 401.031 145.498 400.218 145.498H398.461ZM406.218 8.36724H404.818V6.61884C404.818 5.99253 404.693 5.39882 404.469 4.85838L405.762 4.32211C406.056 5.02955 406.218 5.80528 406.218 6.61884V8.36724ZM8.46648 0.618835H6.70975C5.8962 0.618835 5.12047 0.780752 4.41302 1.07412L4.9493 2.36733C5.48973 2.14323 6.08345 2.01884 6.70975 2.01884H8.46648V0.618835ZM0.709747 137.749H2.10975V139.498C2.10975 140.124 2.23414 140.718 2.45825 141.258L1.16503 141.794C0.871665 141.087 0.709747 140.311 0.709747 139.498V137.749ZM0.709747 134.253H2.10975V130.756H0.709747V134.253ZM0.709747 127.259H2.10975V123.762H0.709747V127.259ZM0.709747 120.265H2.10975V116.768H0.709747V120.265ZM0.709747 113.272H2.10975V109.775H0.709747V113.272ZM0.709747 106.278H2.10975V102.781H0.709747V106.278ZM0.709747 99.2844H2.10975V95.7876H0.709747V99.2844ZM0.709747 92.2908H2.10975V88.794H0.709747V92.2908ZM0.709747 85.2971H2.10975V81.8003H0.709747V85.2971ZM0.709747 78.3035H2.10975V74.8067H0.709747V78.3035ZM0.709747 71.3099H2.10975V67.8131H0.709747V71.3099ZM0.709747 64.3163H2.10975V60.8194H0.709747V64.3163ZM0.709747 57.3226H2.10975V53.8258H0.709747V57.3226ZM0.709747 50.329H2.10975V46.8322H0.709747V50.329ZM0.709747 43.3354H2.10975V39.8386H0.709747V43.3354ZM0.709747 36.3418H2.10975V32.845H0.709747V36.3418ZM0.709747 29.3482H2.10975V25.8513H0.709747V29.3482ZM0.709747 22.3545H2.10975V18.8577H0.709747V22.3545ZM0.709747 15.3609H2.10975V11.8641H0.709747V15.3609ZM0.709747 8.36728H2.10975V6.61884C2.10975 5.99254 2.23414 5.39882 2.45825 4.85839L1.16503 4.32211C0.871664 5.02956 0.709747 5.80529 0.709747 6.61884V8.36728ZM11.9799 0.618835V2.01884H15.4934V0.618835H11.9799ZM19.0069 0.618835V2.01884H22.5203V0.618835H19.0069ZM26.0338 0.618835V2.01884H29.5473V0.618835H26.0338ZM33.0607 0.618835V2.01884H36.5742V0.618835H33.0607ZM40.0877 0.618835V2.01884H43.6011V0.618835H40.0877ZM47.1146 0.618835V2.01884H50.628V0.618835H47.1146ZM54.1415 0.618835V2.01884H57.655V0.618835H54.1415ZM61.1684 0.618835V2.01884H64.6819V0.618835H61.1684ZM68.1954 0.618835V2.01884H71.7088V0.618835H68.1954ZM75.2223 0.618835V2.01884H78.7357V0.618835H75.2223ZM82.2492 0.618835V2.01884H85.7627V0.618835H82.2492ZM89.2761 0.618835V2.01884H92.7896V0.618835H89.2761ZM96.3031 0.618835V2.01884H99.8165V0.618835H96.3031ZM103.33 0.618835V2.01884H106.843V0.618835H103.33ZM110.357 0.618835V2.01884H113.87V0.618835H110.357ZM117.384 0.618835V2.01884H120.897V0.618835H117.384ZM124.411 0.618835V2.01884H127.924V0.618835H124.411ZM131.438 0.618835V2.01884H134.951V0.618835H131.438ZM138.465 0.618835V2.01884H141.978V0.618835H138.465ZM145.492 0.618835V2.01884H149.005V0.618835H145.492ZM152.518 0.618835V2.01884H156.032V0.618835H152.518ZM159.545 0.618835V2.01884H163.059V0.618835H159.545ZM166.572 0.618835V2.01884H170.086V0.618835H166.572ZM173.599 0.618835V2.01884H177.113V0.618835H173.599ZM180.626 0.618835V2.01884H184.14V0.618835H180.626ZM187.653 0.618835V2.01884H191.167V0.618835H187.653ZM194.68 0.618835V2.01884H198.193V0.618835H194.68ZM201.707 0.618835V2.01884H205.22V0.618835H201.707ZM208.734 0.618835V2.01884H212.247V0.618835H208.734ZM215.761 0.618835V2.01884H219.274V0.618835H215.761ZM222.788 0.618835V2.01884H226.301V0.618835H222.788ZM229.815 0.618835V2.01884H233.328V0.618835H229.815ZM236.841 0.618835V2.01884H240.355V0.618835H236.841ZM243.868 0.618835V2.01884H247.382V0.618835H243.868ZM250.895 0.618835V2.01884H254.409V0.618835H250.895ZM257.922 0.618835V2.01884H261.436V0.618835H257.922ZM264.949 0.618835V2.01884H268.463V0.618835H264.949ZM271.976 0.618835V2.01884H275.49V0.618835H271.976ZM279.003 0.618835V2.01884H282.516V0.618835H279.003ZM286.03 0.618835V2.01884H289.543V0.618835H286.03ZM293.057 0.618835V2.01884H296.57V0.618835H293.057ZM300.084 0.618835V2.01884H303.597V0.618835H300.084ZM307.111 0.618835V2.01884H310.624V0.618835H307.111ZM314.138 0.618835V2.01884H317.651V0.618835H314.138ZM321.164 0.618835V2.01884H324.678V0.618835H321.164ZM328.191 0.618835V2.01884H331.705V0.618835H328.191ZM335.218 0.618835V2.01884H338.732V0.618835H335.218ZM342.245 0.618835V2.01884H345.759V0.618835H342.245ZM349.272 0.618835V2.01884H352.786V0.618835H349.272ZM356.299 0.618835V2.01884H359.813V0.618835H356.299ZM363.326 0.618835V2.01884H366.839V0.618835H363.326ZM370.353 0.618835V2.01884H373.866V0.618835H370.353ZM377.38 0.618835V2.01884H380.893V0.618835H377.38ZM384.407 0.618835V2.01884H387.92V0.618835H384.407ZM391.434 0.618835V2.01884H394.947V0.618835H391.434ZM398.461 0.618835V2.01884H400.218C400.844 2.01884 401.438 2.14323 401.978 2.36734L402.514 1.07412C401.807 0.780753 401.031 0.618835 400.218 0.618835H398.461ZM406.218 11.8641H404.818V15.3609H406.218V11.8641ZM406.218 18.8577H404.818V22.3545H406.218V18.8577ZM406.218 25.8513H404.818V29.3481H406.218V25.8513ZM406.218 32.8449H404.818V36.3418H406.218V32.8449ZM406.218 39.8386H404.818V43.3354H406.218V39.8386ZM406.218 46.8322H404.818V50.329H406.218V46.8322ZM406.218 53.8258H404.818V57.3226H406.218V53.8258ZM406.218 60.8195H404.818V64.3163H406.218V60.8195ZM406.218 67.8131H404.818V71.3099H406.218V67.8131ZM406.218 74.8067H404.818V78.3035H406.218V74.8067ZM406.218 81.8003H404.818V85.2971H406.218V81.8003ZM406.218 88.794H404.818V92.2908H406.218V88.794ZM406.218 95.7876H404.818V99.2844H406.218V95.7876ZM406.218 102.781H404.818V106.278H406.218V102.781ZM406.218 109.775H404.818V113.272H406.218V109.775ZM406.218 116.768H404.818V120.265H406.218V116.768ZM406.218 123.762H404.818V127.259H406.218V123.762ZM406.218 130.756H404.818V134.252H406.218V130.756ZM406.218 137.749H404.818V139.498C404.818 140.124 404.693 140.718 404.469 141.258L405.762 141.794C406.056 141.087 406.218 140.311 406.218 139.498V137.749ZM394.947 145.498V144.098H391.434V145.498H394.947ZM387.921 145.498V144.098H384.407V145.498H387.921ZM380.894 145.498V144.098H377.38V145.498H380.894ZM373.867 145.498V144.098H370.353V145.498H373.867ZM366.84 145.498V144.098H363.326V145.498H366.84ZM359.813 145.498V144.098H356.299V145.498H359.813ZM352.786 145.498V144.098H349.272V145.498H352.786ZM345.759 145.498V144.098H342.246V145.498H345.759ZM338.732 145.498V144.098H335.219V145.498H338.732ZM331.705 145.498V144.098H328.192V145.498H331.705ZM324.678 145.498V144.098H321.165V145.498H324.678ZM317.651 145.498V144.098H314.138V145.498H317.651ZM310.624 145.498V144.098H307.111V145.498H310.624ZM303.597 145.498V144.098H300.084V145.498H303.597ZM296.57 145.498V144.098H293.057V145.498H296.57ZM289.544 145.498V144.098H286.03V145.498H289.544ZM282.517 145.498V144.098H279.003V145.498H282.517ZM275.49 145.498V144.098H271.976V145.498H275.49ZM268.463 145.498V144.098H264.949V145.498H268.463ZM261.436 145.498V144.098H257.922V145.498H261.436ZM254.409 145.498V144.098H250.895V145.498H254.409ZM247.382 145.498V144.098H243.869V145.498H247.382ZM240.355 145.498V144.098H236.842V145.498H240.355ZM233.328 145.498V144.098H229.815V145.498H233.328ZM226.301 145.498V144.098H222.788V145.498H226.301ZM219.274 145.498V144.098H215.761V145.498H219.274ZM212.247 145.498V144.098H208.734V145.498H212.247ZM205.221 145.498V144.098H201.707V145.498H205.221ZM198.194 145.498V144.098H194.68V145.498H198.194ZM191.167 145.498V144.098H187.653V145.498H191.167ZM184.14 145.498V144.098H180.626V145.498H184.14ZM177.113 145.498V144.098H173.599V145.498H177.113ZM170.086 145.498V144.098H166.572V145.498H170.086ZM163.059 145.498V144.098H159.546V145.498H163.059ZM156.032 145.498V144.098H152.519V145.498H156.032ZM149.005 145.498V144.098H145.492V145.498H149.005ZM141.978 145.498V144.098H138.465V145.498H141.978ZM134.951 145.498V144.098H131.438V145.498H134.951ZM127.924 145.498V144.098H124.411V145.498H127.924ZM120.898 145.498V144.098H117.384V145.498H120.898ZM113.871 145.498V144.098H110.357V145.498H113.871ZM106.844 145.498V144.098H103.33V145.498H106.844ZM99.8168 145.498V144.098H96.3033V145.498H99.8168ZM92.7899 145.498V144.098H89.2764V145.498H92.7899ZM85.7629 145.498V144.098H82.2495V145.498H85.7629ZM78.736 145.498V144.098H75.2226V145.498H78.736ZM71.7091 145.498V144.098H68.1956V145.498H71.7091ZM64.6822 145.498V144.098H61.1687V145.498H64.6822ZM57.6553 145.498V144.098H54.1418V145.498H57.6553ZM50.6284 145.498V144.098H47.1149V145.498H50.6284ZM43.6014 145.498V144.098H40.088V145.498H43.6014ZM36.5745 145.498V144.098H33.0611V145.498H36.5745ZM29.5476 145.498V144.098H26.0341V145.498H29.5476ZM22.5207 145.498V144.098H19.0072V145.498H22.5207ZM15.4938 145.498V144.098H11.9803V145.498H15.4938Z" fill="#D6E4EC"/>
</svg>
