<svg width="33" height="32" viewBox="0 0 33 32" fill="none" xmlns="http://www.w3.org/2000/svg">
<g clip-path="url(#clip0_613_118734)">
<path d="M9.60659 5.33314H27.1666C28.6466 5.33314 29.8333 6.5198 29.8333 7.9998V23.9998C29.8333 24.4531 29.7266 24.8798 29.5266 25.2531L27.1666 22.8931V15.9998H20.2733L14.9399 10.6665H27.1666V7.9998H12.2733L9.60659 5.33314ZM27.8199 31.0798L23.3933 26.6665H5.83325C4.35325 26.6665 3.16659 25.4798 3.16659 23.9998L3.17992 7.9998C3.17992 7.54647 3.28659 7.11981 3.48659 6.75981L1.41992 4.6798L3.29992 2.7998L29.6999 29.1998L27.8199 31.0798ZM5.83325 9.10647V10.6665H7.39325L5.83325 9.10647ZM20.7266 23.9998L12.7266 15.9998H5.83325V23.9998H20.7266Z" fill="white"/>
</g>
<defs>
<clipPath id="clip0_613_118734">
<rect width="32" height="32" fill="white" transform="translate(0.5)"/>
</clipPath>
</defs>
</svg>
